<?xml version="1.0" encoding="utf-8"?>
<!-- Generator: Adobe Illustrator 18.1.0, SVG Export Plug-In . SVG Version: 6.00 Build 0)  -->
<!DOCTYPE svg PUBLIC "-//W3C//DTD SVG 1.1//EN" "http://www.w3.org/Graphics/SVG/1.1/DTD/svg11.dtd">
<svg version="1.1" id="Layer_1" xmlns="http://www.w3.org/2000/svg" xmlns:xlink="http://www.w3.org/1999/xlink" x="0px" y="0px"
	 viewBox="0 0 792 612" enable-background="new 0 0 792 612" xml:space="preserve">
<path d="M382.7-732c-2.2,0.1-4.5,0.1-6.7,0.1c-8.1,0-16-0.5-23.5-1.6c2.4,3,4.4,5.9,5.3,8.1l23.3-1.8l23.3-1.8
	c0.3-1.5,1.1-3.4,2.1-5.5C398.8-733.1,390.9-732.2,382.7-732z"/>
<path fill="#FFFFFF" d="M348.2-780.1c5.9-3.8,19.2-4,19.2-4c1.7,0,3.1-1.4,3.1-3.1c0,0,1-19.6-15.5-18.3
	C336.7-804,345.4-778.2,348.2-780.1z"/>
<path fill="#FFFFFF" d="M407.1-783.1c-6.2-3.2-19.5-2-19.5-2c-1.7,0.2-3.2-1.1-3.4-2.8c0,0-3-19.4,13.5-19.8
	C416.1-808.1,410.1-781.6,407.1-783.1z"/>
<g>
	<path d="M353.7-737.7c-1.1,0-2.1-0.8-2.3-1.9l-1-5.3c-0.2-1.2,0.6-2.4,1.9-2.7c1.2-0.2,2.4,0.6,2.7,1.9l1,5.3
		c0.2,1.2-0.6,2.4-1.9,2.7C354-737.8,353.9-737.7,353.7-737.7L353.7-737.7z"/>
</g>
<g>
	<path d="M363.3-737.2c-1.2,0-2.2-0.9-2.3-2.2l-0.4-6.4c-0.1-1.3,0.9-2.3,2.2-2.4c1.2-0.1,2.3,0.9,2.4,2.1l0.4,6.4
		c0.1,1.3-0.9,2.3-2.1,2.4C363.4-737.2,363.3-737.2,363.3-737.2L363.3-737.2z"/>
</g>
<g>
	<path d="M375.1-736.5c-1.2,0-2.2-0.9-2.3-2.1l-0.5-6c-0.1-1.3,0.8-2.4,2.1-2.5c1.3-0.1,2.4,0.8,2.5,2.1l0.5,6
		c0.1,1.3-0.8,2.4-2.1,2.5C375.2-736.5,375.2-736.5,375.1-736.5L375.1-736.5z"/>
</g>
<g>
	<path d="M395.3-736.3c-1.1,0-2.1-0.8-2.3-1.9l-1.3-8.2c-0.2-1.2,0.7-2.4,1.9-2.6c1.3-0.2,2.4,0.7,2.6,1.9l1.3,8.2
		c0.2,1.2-0.7,2.4-1.9,2.6C395.6-736.3,395.4-736.3,395.3-736.3L395.3-736.3z"/>
</g>
<g>
	<path d="M404.5-737.2c-0.1,0-0.3,0-0.4,0c-1.2-0.2-2.1-1.4-1.9-2.6l1-5.5c0.2-1.2,1.4-2.1,2.6-1.9c1.2,0.2,2.1,1.4,1.9,2.6l-1,5.5
		C406.6-738,405.6-737.2,404.5-737.2L404.5-737.2z"/>
</g>
<g>
	<path d="M370.3-727.1c-1,0-1.9-0.6-2.2-1.6l-1.7-5.4c-0.4-1.2,0.3-2.5,1.5-2.9c1.2-0.4,2.5,0.3,2.9,1.5l1.7,5.4
		c0.4,1.2-0.3,2.5-1.5,2.9C370.8-727.1,370.6-727.1,370.3-727.1L370.3-727.1z"/>
</g>
<g>
	<path d="M385.9-730l0.7-4.7c0.2-1.3-0.7-2.4-1.9-2.6c-1.2-0.2-2.4,0.7-2.6,1.9l-0.9,5.6c0,0.2,0,0.5,0,0.7
		C382.7-729.5,384.3-729.9,385.9-730z"/>
</g>
<path fill="#FFFFFF" d="M408.4-853.1c-0.2,0-0.5,0.1-0.7,0.1c0.5-1.7,0.7-3.5,0.5-5.4c-0.7-8.2-7.7-14.3-15.8-13.8
	c-0.7-6.2-6.2-10.7-12.4-10.2c-6.3,0.5-11,6-10.5,12.3c-6.8,1.4-12,6.5-13.9,12.9c-7,0.7-12.1,6.8-11.5,13.8c0,0,0,0.1,0,0.1
	c-1.1-0.2-2.2-0.3-3.3-0.2c-7.2,0.6-12.6,7-12,14.2c0.6,7.2,7,12.6,14.2,12c3.4-0.3,6.3-1.8,8.5-4.1c3.2,4.5,8.6,7.3,14.5,6.8
	c5.9-0.5,10.8-4.1,13.2-9.1c2.4,2.4,5.9,3.8,9.6,3.5c3.2-0.3,6.1-1.8,8.1-4.1c3.5,4,8.8,6.4,14.5,5.9c9.6-0.8,16.7-9.2,15.9-18.8
	C426.5-846.8,418-853.9,408.4-853.1z"/>
<path d="M364.6-813.8c-5.2,0-10.1-2.4-13.3-6.5c-2.3,2.1-5.2,3.4-8.3,3.7c-7.7,0.7-14.4-5.2-15-12.7c-0.3-3.7,0.8-7.3,3.2-10.2
	c2.4-2.8,5.8-4.6,9.5-4.9c0.9-0.1,1.7-0.1,2.6,0c-0.1-6.9,5-12.8,11.7-13.8c2-6.4,7.2-11.2,13.7-12.8c-0.1-6.4,4.8-11.9,11.3-12.4
	c6.5-0.5,12.1,4,13.1,10.2c0,0,0.1,0,0.1,0c8.2,0,15.2,6.4,15.8,14.6c0.1,1.5,0,3-0.3,4.5c9.9-0.7,18.5,6.9,19.3,16.7
	c0.4,4.8-1.1,9.6-4.2,13.3c-3.1,3.7-7.5,6-12.4,6.4c-0.5,0-1,0.1-1.5,0.1c0,0,0,0,0,0c-4.9,0-9.7-2-13.1-5.6c-2.1,2.1-4.9,3.4-8,3.7
	c-3.5,0.3-6.8-0.8-9.4-3c-2.7,4.9-7.8,8.2-13.3,8.6C365.6-813.8,365.1-813.8,364.6-813.8L364.6-813.8z M351.5-822.6l0.5,0.8
	c3.1,4.4,8.3,6.9,13.8,6.5c5.4-0.5,10.2-3.8,12.6-8.7l0.5-1l0.8,0.8c2.4,2.4,5.6,3.6,8.9,3.3c2.9-0.2,5.6-1.6,7.5-3.8l0.6-0.7
	l0.6,0.7c3.2,3.6,7.7,5.7,12.5,5.7c0,0,0,0,0,0c0.5,0,0.9,0,1.4-0.1c4.4-0.4,8.5-2.4,11.3-5.9c2.9-3.4,4.3-7.7,3.9-12.2
	c-0.8-9-8.8-16-18-15.2c-0.1,0-0.3,0-0.4,0.1l-1.4,0.2l0.3-1.1c0.5-1.7,0.6-3.4,0.5-5.1c-0.6-7.6-7.3-13.5-15-13.1l-0.7,0l-0.1-0.7
	c-0.6-5.8-5.7-10-11.6-9.5c-5.8,0.5-10.2,5.6-9.8,11.4l0,0.7l-0.7,0.1c-6.4,1.3-11.5,6.1-13.3,12.4l-0.1,0.5l-0.5,0.1
	c-6.5,0.6-11.4,6.5-10.8,13l0.1,1l-1-0.1c-1.1-0.2-2.1-0.2-3.1-0.1c-3.3,0.3-6.3,1.8-8.4,4.3c-2.1,2.5-3.2,5.7-2.9,9
	c0.6,6.7,6.5,11.9,13.4,11.3c3-0.3,5.9-1.6,8-3.9L351.5-822.6L351.5-822.6z"/>
<path d="M408.6-853.9c-1,0.1-3.4,0.5-6.3,1.5c-1.4,0.5-0.6,1.4-0.1,1.3c3-0.8,4.1-1,5.8-1.2"/>
<path d="M343.2-842.8c1.2,0.2,7.2,0.9,8.3,1.2c1.1,0.4-0.2-1.5-2-1.9c-2.2-0.5-4.7-0.8-6.3-0.8"/>
<g>
	<circle fill="#FFFFFF" cx="434.3" cy="-816" r="7.6"/>
	<path d="M434.3-807.7c-4.6,0-8.3-3.7-8.3-8.3s3.7-8.3,8.3-8.3c4.6,0,8.3,3.7,8.3,8.3S438.9-807.7,434.3-807.7L434.3-807.7z
		 M434.3-822.8c-3.8,0-6.8,3.1-6.8,6.8c0,3.8,3.1,6.8,6.8,6.8c3.8,0,6.8-3.1,6.8-6.8C441.1-819.8,438.1-822.8,434.3-822.8
		L434.3-822.8z"/>
</g>
<g>
	<circle fill="#FFFFFF" cx="314.5" cy="-825.2" r="4.8"/>
	<path d="M314.5-819.9c-2.9,0-5.3-2.4-5.3-5.3c0-2.9,2.4-5.3,5.3-5.3s5.3,2.4,5.3,5.3C319.8-822.3,317.4-819.9,314.5-819.9
		L314.5-819.9z M314.5-829.5c-2.4,0-4.3,1.9-4.3,4.3c0,2.4,1.9,4.3,4.3,4.3c2.4,0,4.3-1.9,4.3-4.3
		C318.8-827.6,316.9-829.5,314.5-829.5L314.5-829.5z"/>
</g>
<g>
	<circle fill="#FFFFFF" cx="348.3" cy="-877" r="7.6"/>
	<path d="M348.3-868.7c-4.6,0-8.3-3.7-8.3-8.3s3.7-8.3,8.3-8.3c4.6,0,8.3,3.7,8.3,8.3S352.9-868.7,348.3-868.7L348.3-868.7z
		 M348.3-883.8c-3.8,0-6.8,3.1-6.8,6.8c0,3.8,3.1,6.8,6.8,6.8s6.8-3.1,6.8-6.8C355.1-880.8,352.1-883.8,348.3-883.8L348.3-883.8z"/>
</g>
<path fill="#FFFFFF" d="M347.4-848.1c0.2-1.1,4.1-6.3,8.6-6.2"/>
<path fill="#FFFFFF" d="M359.7-857.8c2.5-4.4,7.5-9.4,10.8-9.4"/>
<path fill="#FFFFFF" d="M372.4-871.9c0.8-1.6,4.3-7.9,7.5-8"/>
<path d="M343.3-877.5l-0.9-0.3c0.9-2.7,3.1-4.6,5.5-4.8l0.1,1C346-881.5,344.1-879.8,343.3-877.5L343.3-877.5z"/>
<path d="M439-816l1,0.3c-0.8,2.8-2.9,4.7-5.3,5.1l-0.1-1C436.5-811.9,438.3-813.6,439-816L439-816z"/>
<path d="M382.7-1428c-2.2,0.1-4.5,0.1-6.7,0.1c-8.1,0-16-0.5-23.5-1.6c2.4,3,4.4,5.9,5.3,8.1l23.3-1.8l23.3-1.8
	c0.3-1.5,1.1-3.4,2.1-5.5C398.8-1429.1,390.9-1428.2,382.7-1428z"/>
<path d="M382.7-1437.1c8.5-0.3,16.8-1.2,24.6-2.6c4.2-7.8,11.3-17.6,12.4-23.2c0,0,6.1-20-1.1-43.9c-7.2-23.9-45.2-19.7-45.2-19.7
	s-38.2,1.8-41.5,26.5s5.8,43.5,5.8,43.5c1.7,4.5,8.1,11.4,13.3,17.7c7.9,1.2,16.3,1.8,24.9,1.8C378.2-1437,380.4-1437,382.7-1437.1z
	"/>
<path fill="#FFFFFF" d="M348.2-1476.1c5.9-3.8,19.2-4,19.2-4c1.7,0,3.1-1.4,3.1-3.1c0,0,1-19.6-15.5-18.3
	C336.7-1500,345.4-1474.2,348.2-1476.1z"/>
<path fill="#FFFFFF" d="M407.1-1479.1c-6.2-3.2-19.5-2-19.5-2c-1.7,0.2-3.2-1.1-3.4-2.8c0,0-3-19.4,13.5-19.8
	C416.1-1504.1,410.1-1477.6,407.1-1479.1z"/>
<g>
	<path d="M353.7-1433.7c-1.1,0-2.1-0.8-2.3-1.9l-1-5.3c-0.2-1.2,0.6-2.4,1.9-2.7c1.2-0.2,2.4,0.6,2.7,1.9l1,5.3
		c0.2,1.2-0.6,2.4-1.9,2.7C354-1433.8,353.9-1433.7,353.7-1433.7L353.7-1433.7z"/>
</g>
<g>
	<path d="M363.3-1433.2c-1.2,0-2.2-0.9-2.3-2.2l-0.4-6.4c-0.1-1.3,0.9-2.3,2.2-2.4c1.2-0.1,2.3,0.9,2.4,2.1l0.4,6.4
		c0.1,1.3-0.9,2.3-2.1,2.4C363.4-1433.2,363.3-1433.2,363.3-1433.2L363.3-1433.2z"/>
</g>
<g>
	<path d="M375.1-1432.5c-1.2,0-2.2-0.9-2.3-2.1l-0.5-6c-0.1-1.3,0.8-2.4,2.1-2.5c1.3-0.1,2.4,0.8,2.5,2.1l0.5,6
		c0.1,1.3-0.8,2.4-2.1,2.5C375.2-1432.5,375.2-1432.5,375.1-1432.5L375.1-1432.5z"/>
</g>
<g>
	<path d="M395.3-1432.3c-1.1,0-2.1-0.8-2.3-1.9l-1.3-8.2c-0.2-1.2,0.7-2.4,1.9-2.6c1.3-0.2,2.4,0.7,2.6,1.9l1.3,8.2
		c0.2,1.2-0.7,2.4-1.9,2.6C395.6-1432.3,395.4-1432.3,395.3-1432.3L395.3-1432.3z"/>
</g>
<g>
	<path d="M404.5-1433.2c-0.1,0-0.3,0-0.4,0c-1.2-0.2-2.1-1.4-1.9-2.6l1-5.5c0.2-1.2,1.4-2.1,2.6-1.9c1.2,0.2,2.1,1.4,1.9,2.6l-1,5.5
		C406.6-1434,405.6-1433.2,404.5-1433.2L404.5-1433.2z"/>
</g>
<g>
	<path d="M370.3-1423.1c-1,0-1.9-0.6-2.2-1.6l-1.7-5.4c-0.4-1.2,0.3-2.5,1.5-2.9c1.2-0.4,2.5,0.3,2.9,1.5l1.7,5.4
		c0.4,1.2-0.3,2.5-1.5,2.9C370.8-1423.1,370.6-1423.1,370.3-1423.1L370.3-1423.1z"/>
</g>
<g>
	<path d="M385.9-1426l0.7-4.7c0.2-1.3-0.7-2.4-1.9-2.6c-1.2-0.2-2.4,0.7-2.6,1.9l-0.9,5.6c0,0.2,0,0.5,0,0.7
		C382.7-1425.5,384.3-1425.9,385.9-1426z"/>
</g>
<path fill="#FFFFFF" d="M408.4-1549.1c-0.2,0-0.5,0.1-0.7,0.1c0.5-1.7,0.7-3.5,0.5-5.4c-0.7-8.2-7.7-14.3-15.8-13.8
	c-0.7-6.2-6.2-10.7-12.4-10.2c-6.3,0.5-11,6-10.5,12.3c-6.8,1.4-12,6.5-13.9,12.9c-7,0.7-12.1,6.8-11.5,13.8c0,0,0,0.1,0,0.1
	c-1.1-0.2-2.2-0.3-3.3-0.2c-7.2,0.6-12.6,7-12,14.2c0.6,7.2,7,12.6,14.2,12c3.4-0.3,6.3-1.8,8.5-4.1c3.2,4.5,8.6,7.3,14.5,6.8
	c5.9-0.5,10.8-4.1,13.2-9.1c2.4,2.4,5.9,3.8,9.6,3.5c3.2-0.3,6.1-1.8,8.1-4.1c3.5,4,8.8,6.4,14.5,5.9c9.6-0.8,16.7-9.2,15.9-18.8
	C426.5-1542.8,418-1549.9,408.4-1549.1z"/>
<path d="M364.6-1509.8c-5.2,0-10.1-2.4-13.3-6.5c-2.3,2.1-5.2,3.4-8.3,3.7c-7.7,0.7-14.4-5.2-15-12.7c-0.3-3.7,0.8-7.3,3.2-10.2
	c2.4-2.8,5.8-4.6,9.5-4.9c0.9-0.1,1.7-0.1,2.6,0c-0.1-6.9,5-12.8,11.7-13.8c2-6.4,7.2-11.2,13.7-12.8c-0.1-6.4,4.8-11.9,11.3-12.4
	c6.5-0.5,12.1,4,13.1,10.2c0,0,0.1,0,0.1,0c8.2,0,15.2,6.4,15.8,14.6c0.1,1.5,0,3-0.3,4.5c9.9-0.7,18.5,6.9,19.3,16.7
	c0.4,4.8-1.1,9.6-4.2,13.3c-3.1,3.7-7.5,6-12.4,6.4c-0.5,0-1,0.1-1.5,0.1c0,0,0,0,0,0c-4.9,0-9.7-2-13.1-5.6c-2.1,2.1-4.9,3.4-8,3.7
	c-3.5,0.3-6.8-0.8-9.4-3c-2.7,4.9-7.8,8.2-13.3,8.6C365.6-1509.8,365.1-1509.8,364.6-1509.8L364.6-1509.8z M351.5-1518.6l0.5,0.8
	c3.1,4.4,8.3,6.9,13.8,6.5c5.4-0.5,10.2-3.8,12.6-8.7l0.5-1l0.8,0.8c2.4,2.4,5.6,3.6,8.9,3.3c2.9-0.2,5.6-1.6,7.5-3.8l0.6-0.7
	l0.6,0.7c3.2,3.6,7.7,5.7,12.5,5.7c0,0,0,0,0,0c0.5,0,0.9,0,1.4-0.1c4.4-0.4,8.5-2.4,11.3-5.9c2.9-3.4,4.3-7.7,3.9-12.2
	c-0.8-9-8.8-16-18-15.2c-0.1,0-0.3,0-0.4,0.1l-1.4,0.2l0.3-1.1c0.5-1.7,0.6-3.4,0.5-5.1c-0.6-7.6-7.3-13.5-15-13.1l-0.7,0l-0.1-0.7
	c-0.6-5.8-5.7-10-11.6-9.5c-5.8,0.5-10.2,5.6-9.8,11.4l0,0.7l-0.7,0.1c-6.4,1.3-11.5,6.1-13.3,12.4l-0.1,0.5l-0.5,0.1
	c-6.5,0.6-11.4,6.5-10.8,13l0.1,1l-1-0.1c-1.1-0.2-2.1-0.2-3.1-0.1c-3.3,0.3-6.3,1.8-8.4,4.3c-2.1,2.5-3.2,5.7-2.9,9
	c0.6,6.7,6.5,11.9,13.4,11.3c3-0.3,5.9-1.6,8-3.9L351.5-1518.6L351.5-1518.6z"/>
<path d="M408.6-1549.9c-1,0.1-3.4,0.5-6.3,1.5c-1.4,0.5-0.6,1.4-0.1,1.3c3-0.8,4.1-1,5.8-1.2"/>
<path d="M343.2-1538.8c1.2,0.2,7.2,0.9,8.3,1.2c1.1,0.4-0.2-1.5-2-1.9c-2.2-0.5-4.7-0.8-6.3-0.8"/>
<g>
	<circle fill="#FFFFFF" cx="434.3" cy="-1512" r="7.6"/>
	<path d="M434.3-1503.7c-4.6,0-8.3-3.7-8.3-8.3s3.7-8.3,8.3-8.3c4.6,0,8.3,3.7,8.3,8.3S438.9-1503.7,434.3-1503.7L434.3-1503.7z
		 M434.3-1518.8c-3.8,0-6.8,3.1-6.8,6.8c0,3.8,3.1,6.8,6.8,6.8c3.8,0,6.8-3.1,6.8-6.8C441.1-1515.8,438.1-1518.8,434.3-1518.8
		L434.3-1518.8z"/>
</g>
<g>
	<circle fill="#FFFFFF" cx="314.5" cy="-1521.2" r="4.8"/>
	<path d="M314.5-1515.9c-2.9,0-5.3-2.4-5.3-5.3c0-2.9,2.4-5.3,5.3-5.3s5.3,2.4,5.3,5.3C319.8-1518.3,317.4-1515.9,314.5-1515.9
		L314.5-1515.9z M314.5-1525.5c-2.4,0-4.3,1.9-4.3,4.3c0,2.4,1.9,4.3,4.3,4.3c2.4,0,4.3-1.9,4.3-4.3
		C318.8-1523.6,316.9-1525.5,314.5-1525.5L314.5-1525.5z"/>
</g>
<g>
	<circle fill="#FFFFFF" cx="348.3" cy="-1573" r="7.6"/>
	<path d="M348.3-1564.7c-4.6,0-8.3-3.7-8.3-8.3s3.7-8.3,8.3-8.3c4.6,0,8.3,3.7,8.3,8.3S352.9-1564.7,348.3-1564.7L348.3-1564.7z
		 M348.3-1579.8c-3.8,0-6.8,3.1-6.8,6.8c0,3.8,3.1,6.8,6.8,6.8s6.8-3.1,6.8-6.8C355.1-1576.8,352.1-1579.8,348.3-1579.8
		L348.3-1579.8z"/>
</g>
<path fill="#FFFFFF" d="M347.4-1544.1c0.2-1.1,4.1-6.3,8.6-6.2"/>
<path fill="#FFFFFF" d="M359.7-1553.8c2.5-4.4,7.5-9.4,10.8-9.4"/>
<path fill="#FFFFFF" d="M372.4-1567.9c0.8-1.6,4.3-7.9,7.5-8"/>
<path d="M343.3-1573.5l-0.9-0.3c0.9-2.7,3.1-4.6,5.5-4.8l0.1,1C346-1577.5,344.1-1575.8,343.3-1573.5L343.3-1573.5z"/>
<path d="M439-1512l1,0.3c-0.8,2.8-2.9,4.7-5.3,5.1l-0.1-1C436.5-1507.9,438.3-1509.6,439-1512L439-1512z"/>
<path d="M392.7-498c-2.2,0.1-4.5,0.1-6.7,0.1c-8.1,0-16-0.5-23.5-1.6c2.4,3,4.4,5.9,5.3,8.1l23.3-1.8l23.3-1.8
	c0.3-1.5,1.1-3.4,2.1-5.5C408.8-499.1,400.9-498.2,392.7-498z"/>
<path d="M392.7-507.1c8.5-0.3,16.8-1.2,24.6-2.6c4.2-7.8,11.3-17.6,12.4-23.2c0,0,6.1-20-1.1-43.9c-7.2-23.9-45.2-19.7-45.2-19.7
	s-38.2,1.8-41.5,26.5c-3.4,24.7,5.8,43.5,5.8,43.5c1.7,4.5,8.1,11.4,13.3,17.7c7.9,1.2,16.3,1.8,24.9,1.8
	C388.2-507,390.4-507,392.7-507.1z"/>
<path fill="#FFFFFF" d="M358.2-546.1c5.9-3.8,19.2-4,19.2-4c1.7,0,3.1-1.4,3.1-3.1c0,0,1-19.6-15.5-18.3
	C346.7-570,355.4-544.2,358.2-546.1z"/>
<path fill="#FFFFFF" d="M417.1-549.1c-6.2-3.2-19.5-2-19.5-2c-1.7,0.2-3.2-1.1-3.4-2.8c0,0-3-19.4,13.5-19.8
	C426.1-574.1,420.1-547.6,417.1-549.1z"/>
<g>
	<path d="M363.7-503.7c-1.1,0-2.1-0.8-2.3-1.9l-1-5.3c-0.2-1.2,0.6-2.4,1.9-2.7c1.2-0.2,2.4,0.6,2.7,1.9l1,5.3
		c0.2,1.2-0.6,2.4-1.9,2.7C364-503.8,363.9-503.7,363.7-503.7L363.7-503.7z"/>
</g>
<g>
	<path d="M373.3-503.2c-1.2,0-2.2-0.9-2.3-2.2l-0.4-6.4c-0.1-1.3,0.9-2.3,2.2-2.4c1.2-0.1,2.3,0.9,2.4,2.1l0.4,6.4
		c0.1,1.3-0.9,2.3-2.1,2.4C373.4-503.2,373.3-503.2,373.3-503.2L373.3-503.2z"/>
</g>
<g>
	<path d="M385.1-502.5c-1.2,0-2.2-0.9-2.3-2.1l-0.5-6c-0.1-1.3,0.8-2.4,2.1-2.5c1.3-0.1,2.4,0.8,2.5,2.1l0.5,6
		c0.1,1.3-0.8,2.4-2.1,2.5C385.2-502.5,385.2-502.5,385.1-502.5L385.1-502.5z"/>
</g>
<g>
	<path d="M405.3-502.3c-1.1,0-2.1-0.8-2.3-1.9l-1.3-8.2c-0.2-1.2,0.7-2.4,1.9-2.6c1.3-0.2,2.4,0.7,2.6,1.9l1.3,8.2
		c0.2,1.2-0.7,2.4-1.9,2.6C405.6-502.3,405.4-502.3,405.3-502.3L405.3-502.3z"/>
</g>
<g>
	<path d="M414.5-503.2c-0.1,0-0.3,0-0.4,0c-1.2-0.2-2.1-1.4-1.9-2.6l1-5.5c0.2-1.2,1.4-2.1,2.6-1.9c1.2,0.2,2.1,1.4,1.9,2.6l-1,5.5
		C416.6-504,415.6-503.2,414.5-503.2L414.5-503.2z"/>
</g>
<g>
	<path d="M380.3-493.1c-1,0-1.9-0.6-2.2-1.6l-1.7-5.4c-0.4-1.2,0.3-2.5,1.5-2.9c1.2-0.4,2.5,0.3,2.9,1.5l1.7,5.4
		c0.4,1.2-0.3,2.5-1.5,2.9C380.8-493.1,380.6-493.1,380.3-493.1L380.3-493.1z"/>
</g>
<g>
	<path d="M395.9-496l0.7-4.7c0.2-1.3-0.7-2.4-1.9-2.6c-1.2-0.2-2.4,0.7-2.6,1.9l-0.9,5.6c0,0.2,0,0.5,0,0.7
		C392.7-495.5,394.3-495.9,395.9-496z"/>
</g>
<g>
	<path fill="#F2F2F2" d="M418.4-619.1c-0.2,0-0.5,0.1-0.7,0.1c0.5-1.7,0.7-3.5,0.5-5.4c-0.7-8.2-7.7-14.3-15.8-13.8
		c-0.7-6.2-6.2-10.7-12.4-10.2c-6.3,0.5-11,6-10.5,12.3c-6.8,1.4-12,6.5-13.9,12.9c-7,0.7-12.1,6.8-11.5,13.8c0,0,0,0.1,0,0.1
		c-1.1-0.2-2.2-0.3-3.3-0.2c-7.2,0.6-12.6,7-12,14.2c0.6,7.2,7,12.6,14.2,12c3.4-0.3,6.3-1.8,8.5-4.1c3.2,4.5,8.6,7.3,14.5,6.8
		c5.9-0.5,10.8-4.1,13.2-9.1c2.4,2.4,5.9,3.8,9.6,3.5c3.2-0.3,6.1-1.8,8.1-4.1c3.5,4,8.8,6.4,14.5,5.9c9.6-0.8,16.7-9.2,15.9-18.8
		C436.5-612.8,428-619.9,418.4-619.1z"/>
	<path d="M374.6-579.8c-5.2,0-10.1-2.4-13.3-6.5c-2.3,2.1-5.2,3.4-8.3,3.7c-7.7,0.7-14.4-5.2-15-12.7c-0.3-3.7,0.8-7.3,3.2-10.2
		c2.4-2.8,5.8-4.6,9.5-4.9c0.9-0.1,1.7-0.1,2.6,0c-0.1-6.9,5-12.8,11.7-13.8c2-6.4,7.2-11.2,13.7-12.8c-0.1-6.4,4.8-11.9,11.3-12.4
		c6.5-0.5,12.1,4,13.1,10.2c0,0,0.1,0,0.1,0c8.2,0,15.2,6.4,15.8,14.6c0.1,1.5,0,3-0.3,4.5c9.9-0.7,18.5,6.9,19.3,16.7
		c0.4,4.8-1.1,9.6-4.2,13.3c-3.1,3.7-7.5,6-12.4,6.4c-0.5,0-1,0.1-1.5,0.1c0,0,0,0,0,0c-4.9,0-9.7-2-13.1-5.6
		c-2.1,2.1-4.9,3.4-8,3.7c-3.5,0.3-6.8-0.8-9.4-3c-2.7,4.9-7.8,8.2-13.3,8.6C375.6-579.8,375.1-579.8,374.6-579.8L374.6-579.8z
		 M361.5-588.6l0.5,0.8c3.1,4.4,8.3,6.9,13.8,6.5c5.4-0.5,10.2-3.8,12.6-8.7l0.5-1l0.8,0.8c2.4,2.4,5.6,3.6,8.9,3.3
		c2.9-0.2,5.6-1.6,7.5-3.8l0.6-0.7l0.6,0.7c3.2,3.6,7.7,5.7,12.5,5.7c0,0,0,0,0,0c0.5,0,0.9,0,1.4-0.1c4.4-0.4,8.5-2.4,11.3-5.9
		c2.9-3.4,4.3-7.7,3.9-12.2c-0.8-9-8.8-16-18-15.2c-0.1,0-0.3,0-0.4,0.1l-1.4,0.2l0.3-1.1c0.5-1.7,0.6-3.4,0.5-5.1
		c-0.6-7.6-7.3-13.5-15-13.1l-0.7,0l-0.1-0.7c-0.6-5.8-5.7-10-11.6-9.5c-5.8,0.5-10.2,5.6-9.8,11.4l0,0.7l-0.7,0.1
		c-6.4,1.3-11.5,6.1-13.3,12.4l-0.1,0.5l-0.5,0.1c-6.5,0.6-11.4,6.5-10.8,13l0.1,1l-1-0.1c-1.1-0.2-2.1-0.2-3.1-0.1
		c-3.3,0.3-6.3,1.8-8.4,4.3c-2.1,2.5-3.2,5.7-2.9,9c0.6,6.7,6.5,11.9,13.4,11.3c3-0.3,5.9-1.6,8-3.9L361.5-588.6L361.5-588.6z"/>
	<path d="M418.6-619.9c-1,0.1-2.5,0.1-5.4,1.2c-0.4,0.2-1.5,1.7-1,1.6c3-0.8,4.1-1,5.8-1.2"/>
	<path d="M353.2-608.8c1.4,0.3,6.7,1.4,8.2,2.8c0.9,0.8,0.7-1.3-1.2-2.4c-2-1.1-5.4-1.9-6.9-1.9"/>
</g>
<g>
	<circle fill="#FFFFFF" cx="444.3" cy="-582" r="7.6"/>
	<path d="M444.3-573.7c-4.6,0-8.3-3.7-8.3-8.3s3.7-8.3,8.3-8.3c4.6,0,8.3,3.7,8.3,8.3S448.9-573.7,444.3-573.7L444.3-573.7z
		 M444.3-588.8c-3.8,0-6.8,3.1-6.8,6.8c0,3.8,3.1,6.8,6.8,6.8c3.8,0,6.8-3.1,6.8-6.8C451.1-585.8,448.1-588.8,444.3-588.8
		L444.3-588.8z"/>
</g>
<g>
	<circle fill="#FFFFFF" cx="324.5" cy="-591.2" r="4.8"/>
	<path d="M324.5-585.9c-2.9,0-5.3-2.4-5.3-5.3c0-2.9,2.4-5.3,5.3-5.3s5.3,2.4,5.3,5.3C329.8-588.3,327.4-585.9,324.5-585.9
		L324.5-585.9z M324.5-595.5c-2.4,0-4.3,1.9-4.3,4.3c0,2.4,1.9,4.3,4.3,4.3c2.4,0,4.3-1.9,4.3-4.3
		C328.8-593.6,326.9-595.5,324.5-595.5L324.5-595.5z"/>
</g>
<g>
	<circle fill="#FFFFFF" cx="358.3" cy="-643" r="7.6"/>
	<path d="M358.3-634.7c-4.6,0-8.3-3.7-8.3-8.3s3.7-8.3,8.3-8.3c4.6,0,8.3,3.7,8.3,8.3S362.9-634.7,358.3-634.7L358.3-634.7z
		 M358.3-649.8c-3.8,0-6.8,3.1-6.8,6.8c0,3.8,3.1,6.8,6.8,6.8s6.8-3.1,6.8-6.8C365.1-646.8,362.1-649.8,358.3-649.8L358.3-649.8z"/>
</g>
<path fill="none" stroke="#E6E6E6" stroke-width="2" stroke-linecap="round" d="M415.5-588.1c4.1,1.2,15.6-0.1,18.2-11.9"/>
<path fill="#FFFFFF" stroke="#E6E6E6" stroke-width="1.5" stroke-linecap="round" d="M443.9-576.5c2,0,5.6-2.9,5.6-5.6"/>
<path fill="#FFFFFF" stroke="#E6E6E6" stroke-width="1.5" stroke-linecap="round" d="M325.4-588.2c1,0,2.3-0.7,2.3-2.3"/>
<path fill="#FFFFFF" stroke="#E6E6E6" stroke-width="1.5" stroke-linecap="round" d="M358.8-637.5c2.9,0,5.2-3.4,5.2-5.2"/>
<path fill="#FFFFFF" stroke="#E6E6E6" stroke-width="1.5" stroke-linecap="round" d="M341.6-599.1"/>
<path fill="#F2F2F2" stroke="#FFFFFF" stroke-width="2" stroke-linecap="round" d="M341.2-598.5c0.6-3.6,6.3-8.1,9.5-8.4"/>
<path fill="#F2F2F2" stroke="#FFFFFF" stroke-width="2" stroke-linecap="round" d="M359.5-618.2c1.4-1.5,4.1-2.8,6.1-2.6"/>
<path fill="#F2F2F2" stroke="#FFFFFF" stroke-width="2" stroke-linecap="round" d="M372.4-630.2c3.9-3,7.1-4,8-3.8"/>
<path fill="#F2F2F2" stroke="#FFFFFF" stroke-width="2" stroke-linecap="round" d="M388.6-645.8c-1.2,0.9-6.4,6.2-6.6,8.8"/>
<g>
	<path fill="#231F20" d="M221-1179.6c-0.4,2-1.1,4.8-1.7,7.2c-0.2,1.7-0.7,3.7-1.1,5c-0.4,1.7-0.9,3.5-1.3,5.1
		c-0.2,0.7-0.7,2-0.9,2.8c-0.2,0.7-0.7,1.7-0.9,2.4c-1.1,4-5,8.6-5,8.6c0,1.3,4.8,4.6,6.2,11.8c3.7,18.6,2.4,27.7,4,41.5
		c0.4,2.8,0.9,14.5,0.9,16.2c0,5.5-4,27.6-13.4,29.4c-0.2-0.2-0.6-0.4-0.9-0.7c9.2-5.5,12.3-16,12.7-26.3c0.2-4.6-0.2-14-0.7-20.9
		c-2.6-31.4-0.6-23.5-4-39.3c-0.7-3.3-3.7-10.1-6.4-10.1c-2,0-1.1,9.7-1.1,10.1c0,12.7,1.7,17.1,1.7,20.2v8.8c0,0.7-0.9,10.5-0.9,11
		v15.1l-1.7,31.6h-1.1l2.2-60.8c-1.3-20.9-1.7-13.4-1.7-25.7c0-0.6,0.6-11.8,0.7-18.7c0.9-27.9,2.6-45.8,2.9-58.6
		c0-1.8,0-5.5-0.6-6.6c0.2-0.4,0.6-0.6,0.9-0.2c0.2-0.4,0.6-0.4,0.6-0.6c0,0,0.2,0.2-0.2,0.4c1.5,0.6,3.3,0.4,5,0.9
		c2.6,0.9,5.3,6.1,5.7,9c0.7,4.8,1.3,13.6,1.3,14.3C222.2-1196.3,221.9-1183.8,221-1179.6z M220.8-1198.7c0-0.7-0.6-8.8-1.5-13
		c-0.4-2.2-2-5.9-4.4-7c-1.1-0.6-3.1-0.6-4.6-0.7c0.9,4.8-0.6,28.5-1.3,38.4l-1.1,32c6.1-2.2,12.9-33.3,12.9-41.7V-1198.7z"/>
	<path fill="#231F20" d="M249.6-1051.5c-1.1-2.4-2-7.3-2.4-10.5c-1.1-7.3-1.5-26.1-1.5-31.1v-7.2c0-0.6-0.2-1.5-0.2-2.2
		c0-4.2,0.9-9.6,0.7-13.8c-0.2-3.9-0.4-19.1,0.6-31.6l-0.7-64.3c0-0.6-0.9-3.7-1.1-5.9c-0.4,0-0.4-0.2-0.7-0.6l-2,30.3
		c0,0.6-0.9,17.6-1.7,23.3c-0.4,4-2.2,12.7-2.4,13.2v1.8c1.8-0.4,4.6-0.4,6.8,0c-0.7,0.7-3.5,1.1-4.6,1.1c-0.7,0-1.3-0.4-1.8-0.6
		c-1.7,16-4,32.7-4.6,48.9c-0.2,2.6-2.4,21.5-2.9,30.1l-2.6,19.7c-0.4-0.2-1.3-0.7-1.3-1.3c0-0.9,2.4-17.5,2.4-20.4
		c0.2-2.2,0.4-5.9,0.9-8.6c0.7-3.5-0.4-7.5,1.5-9.2c0,0-0.4-0.4-0.6-0.4l0.6-0.6c0,0-0.2-0.2-0.6-0.2c2.2-26.5,1.3-28.1,3.7-36
		c-0.4,0.4-0.4,0.9-0.6,1.1c2.2-8.3,0.6-16.9,3.1-29.4c2-9.4,2.2-19.7,3.1-28.3l-0.6,0.2l1.5-20.9c0,0,0,0.2,0.4,0.6
		c0.2-0.7-0.2-1.7-0.2-2.4c1.3-0.7,1.1-1.1,0.7-2.4c-0.4,0.6-0.6,0.9-0.6,1.5c0-2.9,0.6-6.4,0.6-9.7c0.2,0.4,0.2,0.6,0.6,0.9
		c0-0.6,0.2-0.9-0.7-1.3c0.4-0.4,0.6-0.6,0.9-0.9c0,0-0.4-0.2-0.6-0.2c0.2-1.3-0.6-3.1,0.9-4c3.5,2.6,4,13,4,19.7v8.6
		c0,0.7,0,9,0.2,12.7l0.6,32.7c0,1.1-0.6,3.3-0.6,13.8v20.8l-1.1,12.7c0,0.6,0.6,3.3,0.6,4v8.5l0.4,22.8c0.2,0.6,2.4,10.5,2.4,12.5
		C250.2-1053.1,249.6-1052.2,249.6-1051.5z M241.2-1181.6v-1.5h-0.6v1.5H241.2z M241.5-1188v-1.1H241v1.1H241.5z M241.7-1195.2v-1.1
		h-0.6v1.1H241.7z M242.1-1200.1h-0.6l-0.2,2.2h0.4L242.1-1200.1z M242.8-1209.3h-0.4v-1.1h0.4V-1209.3z M243.7-1220h-0.6l-0.2,1.3
		h0.4L243.7-1220z M243.7-1220.9v-1.1h-0.6v1.1H243.7z"/>
	<path fill="#231F20" d="M273.1-1054.4c-0.6,0.7-1.8,3.5-3.5,3.5c-5.1,0-3.9-8.8-3.9-10.1c-0.2-3.3-0.9-8.6-0.9-11.6
		c0-2,0.6-13,1.3-20.2l-0.2-37.1c-1.3-7.4,0.9-14.7-4.8-23.3l-1.1,49.6c-0.9,5.1,0.4,6.2,0.4,8.8v17.5l-2,23.7
		c-0.9-0.2-1.3-2.8-1.3-3.3c0-0.6,0-2.4,0.4-3.5c1.5-8.5,0.7-11,1.1-15.8c0.2-2.2,0.2-5.1,0.2-7.9c0.2-5.9-0.7-11.9,0.2-16.9
		c0,0-0.2-0.2-0.6-0.2c0.2-19.1,0.7,11.8,0.6-57.7c1.7-6.2,0.7-15.6,0.9-23.5c0.2-2,0.2-7.2,0.2-7.7v-8.6c0-0.6,0.4-9.6,0.4-10.3
		c0-3.9-1.1-11.2-1.1-11.8v-1.8c0.7,0,1.3,0.7,1.8,0.7c0.7,0,0.9-0.2,1.7-0.2c6.2,0,8.5,17.8,8.5,20.8v8.1c0,0.6,0.6,7.7,0.6,8.5
		c0,10.3-4,28.3-9.6,31.2c4.4,4.2,3.9,13.2,5,18.4l0.4,42.1l-1.1,19.5c0,0.6,0.6,6.4,0.6,7.2v8.1c0,0.9-0.2,5.7,2.6,5.7
		C270.2-1052.8,272-1054.2,273.1-1054.4z M270.2-1184c0-10.3-0.6-39.1-9.6-36.7c0.9,3.5,0.4,6.6,1.1,11.8l-0.6,20v7
		c0,30.7-0.9,16.7-0.4,27.2c4-2.2,6.8-11.8,7.9-15.8C269.3-1174.6,270.2-1183.4,270.2-1184z"/>
	<path fill="#231F20" d="M292.6-1217.8h-0.7c-0.6,0-2.2-0.7-3.9-0.9c-1.1,1.5,0.2,18.7,0.2,20.2l-4.2,57.9c2.8-0.4,7,0.6,9.4-0.9
		l1.1,0.4c-0.4,1.1-3.9,2.2-4.4,2.2c-0.6,0-5,0-5.5,0c-0.9,0-2.4,19.8-2.2,30l-0.2,25.4c0,3.3-1.5,28.7-1.3,32
		c3.9,0.2,8.1,0.2,12.3,0.4c-0.4,1.7-2.4,1.7-3.1,1.7c-0.4,0-1.3-0.2-1.7-0.6l-0.6,0.6c-1.7-0.2-4.4-0.6-5.1-0.6
		c-0.7,0-1.8,0.2-2.2-0.7c-0.2,0.2-0.4,0.4-0.2,0.7c-1.5-0.7-1.5-2.4-1.5-4.2c0,0,1.3-19.1,1.3-21.9v-7.5l0.6-25.2l4-64.7l1.8-16.7
		l-0.6-23.5c0-1.8,0.4-4,0.4-6.1c0.2,0.2,0.2,0.4,0.9,0.4c0.6,0,0.6-0.6,1.3-0.6c0.6,0,2.8,0.6,3.5,0.6c0.7,0,3.9-0.2,8.5-0.2
		C300.2-1218.5,295.6-1217.8,292.6-1217.8z M279.9-1051.1h-0.4l-0.4-2.6h0.6L279.9-1051.1z M279.9-1054.6h-0.4v-1.1h0.4V-1054.6z
		 M280.3-1056.6h-0.6v-0.9h0.6V-1056.6z M281-1069.3l-0.2,4.6h-0.6l0.4-4.6H281z M280.9-1061h-0.6v-2.4h0.6V-1061z M281-1077.9h-0.4
		v-1.8h0.4V-1077.9z M281-1071.5h-0.4v-3.5h0.4V-1071.5z M281.4-1085.1h-0.6v-0.9h0.6V-1085.1z M281.4-1082h-0.6v-1.3h0.6V-1082z
		 M282.1-1116.3h-0.4v-4h0.4V-1116.3z M283.1-1128.3v-2.4h-0.6v2.4H283.1z M283.6-1138.2v-1.1h-0.6v1.1H283.6z M286.9-1211.9v-3.1
		h-0.6v3.1H286.9z"/>
</g>
<g>
	<path fill="#231F20" d="M509.5-1178.5c-0.4,2-1.1,4.8-1.7,7.2c-0.2,1.7-0.7,3.7-1.1,5c-0.4,1.7-0.9,3.5-1.3,5.1
		c-0.2,0.7-0.7,2-0.9,2.8c-0.2,0.7-0.7,1.7-0.9,2.4c-1.1,4-5,8.6-5,8.6c0,1.3,4.8,4.6,6.2,11.8c3.7,18.6,2.4,27.7,4,41.5
		c0.4,2.8,0.9,14.5,0.9,16.2c0,5.5-4,27.6-13.4,29.4c-0.2-0.2-0.6-0.4-0.9-0.7c9.2-5.5,12.3-16,12.7-26.3c0.2-4.6-0.2-14-0.7-20.9
		c-2.6-31.4-0.6-23.5-4-39.3c-0.7-3.3-3.7-10.1-6.4-10.1c-2,0-1.1,9.7-1.1,10.1c0,12.7,1.7,17.1,1.7,20.2v8.8c0,0.7-0.9,10.5-0.9,11
		v15.1l-1.7,31.6h-1.1l2.2-60.8c-1.3-20.9-1.7-13.4-1.7-25.7c0-0.6,0.6-11.8,0.7-18.7c0.9-27.9,2.6-45.8,2.9-58.6
		c0-1.8,0-5.5-0.6-6.6c0.2-0.4,0.6-0.6,0.9-0.2c0.2-0.4,0.6-0.4,0.6-0.6c0,0,0.2,0.2-0.2,0.4c1.5,0.6,3.3,0.4,5,0.9
		c2.6,0.9,5.3,6.1,5.7,9c0.7,4.8,1.3,13.6,1.3,14.3C510.8-1195.3,510.4-1182.8,509.5-1178.5z M509.3-1197.7c0-0.7-0.6-8.8-1.5-13
		c-0.4-2.2-2-5.9-4.4-7c-1.1-0.6-3.1-0.6-4.6-0.7c0.9,4.8-0.6,28.5-1.3,38.4l-1.1,32c6.1-2.2,12.9-33.3,12.9-41.7V-1197.7z"/>
	<path fill="#231F20" d="M537.6-1135.2v9c0,0.7,0,6.1-0.4,8.6l-1.1,28.3c-0.6,4.2-1.3,11.6-2.2,17.1c0,0.7-0.6,22-8.5,22
		c-6.2,0-6.4-14.5-6.4-17.1v-7.2c0-0.6-0.4-13.2-0.4-13.8c0-14.9,2.6-53.3,2.6-54.9v-9.4l3.3-44.3c0-0.6,1.5-7.7,1.5-11
		c0-6.8,1.7-13.8,9.2-13.8c4,0,5.5,6.1,5.9,9c0,0.4-0.2,0.4,0,12.5L537.6-1135.2z M519.6-1082.1h-0.4v-0.9h0.4V-1082.1z M520-1079.9
		h-0.6l-0.2-1.3h0.4L520-1079.9z M520-1077.1h-0.6v-0.9h0.6V-1077.1z M520-1072.9h-0.6v-3.9h0.6V-1072.9z M520-1071.2h-0.6v-1.3h0.6
		V-1071.2z M520-1067.9h-0.6v-2.9h0.6V-1067.9z M520-1062.4h-0.6v-1.5h0.6V-1062.4z M520.2-1113.9v-1.3h-0.4v1.3H520.2z
		 M520.2-1106.7v-1.5h-0.4v1.5H520.2z M520.2-1101.7v-0.9h-0.4v0.9H520.2z M520.5-1117.2v-1.1H520v1.1H520.5z M539.8-1212.7
		c0-1.1-1.7-7.3-5-7.3c-0.7,0-3.1,1.7-4.4,2c0,0.2,0.4,0.6,0,0.7c-0.2-0.2,0.2-0.2-0.6-0.2c-0.9,0-0.9,2-1.1,2.9h-1.5
		c0.4,2,0,2.4,0,4.4l-3.9,44.5v6.2l-2.8,51.8v7.5c0,0.6-0.4,10.5-0.4,11v9.4c0,5,1.1,10.1-0.2,16.4c1.7,2.2-0.2,11.2,5.7,11.2
		c0.6,0-0.2-0.2,0.6-0.2c4.8,0,7-21.9,7-23.7l2.9-37.5c-0.9-2.4,0-7.9,0-10.1v-21.7c0-7.7,3.5-47,3.5-47.2V-1212.7z M520.7-1120.8
		v-0.9h-0.4v0.9H520.7z M521.1-1125.8v-1.3h-0.6v1.3H521.1z M522.2-1146.8v-2.4h-0.6v2.4H522.2z M522.9-1165.1v-1.5h-0.4v1.5H522.9z
		 M523.5-1173.2h-0.4l-0.4,0.9l0.4,0.2L523.5-1173.2z M523.3-1169v-1.5h-0.6v1.5H523.3z M523.9-1175.8v-2.8h-0.6v2.8H523.9z
		 M524-1179.6v-2.8h-0.4v2.8H524z M540-1214.9l-0.7-3.1h-0.4l0.6,3.1H540z"/>
	<path fill="#231F20" d="M561.5-1166.6c0-0.6,0-1.1-0.2-1.3c-0.4,0.7-0.4,1.7,0,2.8c0.2-0.4,0.2-0.6,0.2-0.7c0,0.9-0.2,2.4-0.2,3.5
		c0-0.6-0.2-1.1-0.4-1.7l-1.1,15.8c0.7-2.2,1.1-5.7,1.1-8.1l0.4,0.9l-1.7,15.1c0-0.2,0-0.6-0.4-1.1c-0.2,1.5-0.2,2.6,0,3.9
		c0.4-0.4,0.2-1.3,0.2-2c0,3.9,0.2,7.9,0.2,11.8c-0.4-0.4-0.4-0.6-0.6-0.9c-0.2,0.7,0,1.5,0.6,2.2c-0.2,0.2,0.7,1.7-0.9-0.6
		c0.9,2,0.7,2.4,0.7,2.6c0.2-0.6,0.2-1.1-0.4-2c-0.2,0.9-0.4,2.6,0.2,3.5c0.4-0.4,0.2-0.4,0.2-0.6c-0.2,1.7,0.4,2.9,0.4,4.6
		c0-0.7,0-1.7-0.2-2.4l-1.1,38.4c-0.9,0.2-0.7,1.1-0.4,1.8c0.6-0.6,0.9-0.9,0.4-0.7c-0.2,0,0.6-0.7,0.6-1.3v-9.6
		c0-0.7,0.6-13.6,0.7-14.3v-9.7l-0.6,22.4l0.6-23.5l-0.2,48l0.6,18.4c-0.2,0-0.7,0.2-0.9,0.4c-1.5-2.9-1.8-9.4-2-12.9l-1.1-32.5
		c-2.6-30.1-2.6-30.5-3.9-45.8l0.2-16.5c-0.7-14-0.9-8.5-0.6-16.2l-1.1-30.9c0-0.6-0.7-3.9-1.1-5.7c-0.4,0.6-0.6,2.8-0.6,3.3v17.3
		c0,0.6-0.9,9.2-1.1,13.8c-0.2,9.2-0.6,22.4-0.9,36.7l-1.1,9.7l-1.1,66.7l0.6,15.4c-1.5-4.4-1.7-14.5-1.7-19.7
		c0-12.7,1.1-6.8,1.1-55.5l2-35.6v-20.8c-0.2,0.4-0.2,1.3-0.2,2.2c0-1.5,0.7-3.9,0.6-6.1c0,0.4,0,0.4,0.2,0.6
		c0.4-1.7,0.6-4.4,0.6-5.1v-15.6c0-0.7,0.9-2.6-0.4-3.1c0.4-0.2,0.9-0.4,0.9-1.1c0-0.7-0.7-9.6-1.3-14.1c0.2,0,0.4,0.7,1.1,0.7
		c0.7,0,0.4-0.2,0.7-0.2c3.3,18.6,3.9,32.5,3.9,47.4v12.3l1.1,32c0,0.9,1.7,14.3,1.8,17.3c0.9,10.5,1.5,19.7,2.2,29.6v-56.6
		c-0.2-0.6,0.7-7.5,1.3-14.7c1.3-15.3,0.6-32.5,4.4-50.5c0,0-0.4-0.2-0.6-0.2c0.7-4.2,1.3-9.9,1.1-15.4c0,0,0.4-0.2,0.7-0.4
		c0.2,0.2,0.6,0.4,0.9,0.6C564.8-1201.3,561.2-1182.4,561.5-1166.6z M545.7-1136.1v-1.1h-0.6v1.1H545.7z M547-1176.5v-1.1h-0.4v1.1
		H547z M547.4-1181.3v-1.5h-0.6v1.5H547.4z M547.6-1184.6h-0.4v-1.3h0.4V-1184.6z M547.9-1189h-0.6v-1.7h0.6V-1189z M549.6-1215.8
		v-1.1H549v1.1H549.6z M552.2-1163.1v-0.9h-0.6v0.9H552.2z M558.9-1080.2l-0.2,0.4l-0.7-0.4l0.2-0.4L558.9-1080.2z M558.4-1075.1
		H558v-4.6h0.4V-1075.1z M559.3-1130v-1.1h-0.6v1.1H559.3z M560.1-1148h-0.4l-0.4,2.4h0.6L560.1-1148z M559.9-1142v-3.3h-0.6v3.3
		H559.9z M561.5-1174.1v-0.9H561v0.9H561.5z M561.5-1156.7v-2H561v2H561.5z"/>
	<path fill="#231F20" d="M586.3-1216.8h-0.7c-0.6,0-2.2-0.7-3.9-0.9c-1.1,1.5,0.2,18.7,0.2,20.2l-4.2,57.9c2.8-0.4,7,0.6,9.4-0.9
		l1.1,0.4c-0.4,1.1-3.9,2.2-4.4,2.2c-0.6,0-5,0-5.5,0c-0.9,0-2.4,19.8-2.2,30l-0.2,25.4c0,3.3-1.5,28.7-1.3,32
		c3.9,0.2,8.1,0.2,12.3,0.4c-0.4,1.7-2.4,1.7-3.1,1.7c-0.4,0-1.3-0.2-1.7-0.6l-0.6,0.6c-1.7-0.2-4.4-0.6-5.1-0.6
		c-0.7,0-1.8,0.2-2.2-0.7c-0.2,0.2-0.4,0.4-0.2,0.7c-1.5-0.7-1.5-2.4-1.5-4.2c0,0,1.3-19.1,1.3-21.9v-7.5l0.6-25.2l4-64.7l1.8-16.7
		l-0.6-23.5c0-1.8,0.4-4,0.4-6.1c0.2,0.2,0.2,0.4,0.9,0.4c0.6,0,0.6-0.6,1.3-0.6c0.6,0,2.8,0.6,3.5,0.6c0.7,0,3.9-0.2,8.5-0.2
		C593.9-1217.5,589.3-1216.8,586.3-1216.8z M573.6-1050.1h-0.4l-0.4-2.6h0.6L573.6-1050.1z M573.6-1053.6h-0.4v-1.1h0.4V-1053.6z
		 M574-1055.6h-0.6v-0.9h0.6V-1055.6z M574.8-1068.3l-0.2,4.6H574l0.4-4.6H574.8z M574.6-1060H574v-2.4h0.6V-1060z M574.8-1076.9
		h-0.4v-1.8h0.4V-1076.9z M574.8-1070.5h-0.4v-3.5h0.4V-1070.5z M575.1-1084.1h-0.6v-0.9h0.6V-1084.1z M575.1-1081h-0.6v-1.3h0.6
		V-1081z M575.9-1115.3h-0.4v-4h0.4V-1115.3z M576.8-1127.3v-2.4h-0.6v2.4H576.8z M577.3-1137.2v-1.1h-0.6v1.1H577.3z M580.6-1210.9
		v-3.1h-0.6v3.1H580.6z"/>
	<path fill="#231F20" d="M613.7-1207.9h-1.1c0-0.2,0.2-1.1,0.6-1.3c-0.2-0.2-0.6-0.2-0.7-0.4c0-0.4,0.2-0.4,0.6-0.7
		c0,0,0.6-0.4-0.2-0.4c-0.7,0-0.4,0.2-0.7,0.2c0.6-3.3,0.6-7.9-1.8-10.1c-0.6,0.9-5.3,2.9-4,4.6c0,0-0.4,0.2-0.6-0.2
		c-1.3,0.9-2.2,12.3-2.2,18.6c0,1.7,1.3,12.1,1.5,18.4c0.2,2.6,0.4,5.1,0.7,9.2c0.2,2,0.7,4.8,0.4,7.2c-1.1,11.9,4.4,47.6,4.4,63.4
		l1.1,29c0.4,1.5-1.5,19.8-9.7,19.8c-2.6,0-2.9-4.6-2.9-4.8c0-0.7,1.1-6.1,1.1-6.8v-6.8c0-0.7,0.7-3.5,0.9-5.5
		c0.4,2,0.7,5.3,0.7,5.9c0,2.2-1.5,12.5-1.5,12.9c0,0.7,0.6,1.8,0.7,2.6c0.4-0.2,0.4-0.4,0.4-0.7c0,0.6,0.6,1.1,0.7,1.7
		c9.7-5.1,6.2-13.6,8.5-21.1c-0.2-0.4-0.4-0.4-0.7,0c0-0.6-0.7-13.2,0.2-14.3v-2.6c0-2.4-1.8-5.5-0.7-8.6c-0.4-2.6-0.6-8.8-0.6-9.6
		l-2.8-29.6c0-0.6-0.9-4.8-1.1-7.3c-0.4-8.3-0.7-24.8-0.7-25.5l-2.2-26.5c0-3.3-0.6-24.3,9-24.3c2.4,0,2.9,3.7,2.9,4.8V-1207.9z
		 M608.4-1056.4h-0.6v-0.9h0.6V-1056.4z"/>
</g>
<g>
	<g>
		<path d="M468.6,286.7c-0.1-0.2-0.2-1.3,0.2-0.6c0.1,0.2,0.2,0.2,0.2,0.3c1.2-6.4,2.6-15.8,3-27.3c-0.2,0-0.5,0.3-0.5-0.1
			c0-0.8,0-1.2,0.1-2.2c0.1-1-0.1-1.1-0.1-2.9c0-0.7,0.3-1.6,0.6-2.4c0-3.2-0.1-6.6-0.3-10.1c-0.5-0.3-0.8-0.6-0.8-1
			c0-0.3,0.3-0.6,0.7-1c-0.3-4.9-0.9-10-1.7-15.3c-0.7-0.6-1.4-1.2-1.3-1.7c0.1-0.8,0.6-0.7,0.7-2.3c-0.1-0.6-0.2-1.1-0.3-1.7
			c-0.3-0.4-0.8-0.3-1.1-1c-0.4-0.9,0.2-1.5,0.4-2.3c-1.1-5.2-2.3-10.4-4-15.8c-15.8-52.6-99.4-43.4-99.4-43.4s-64.4,3.1-85.4,40.4
			c0.1,0.8,0.2,1.7,0.1,2.7c-0.2,1.5,0.2,0.8,0.3,1.4c0.1,0.6,0.4,0.2,0.8,0.5c0.5,0.3,0,0,0.4,0.2c0.4,0.3,0.3,0.1,1.2,0.2
			c0.9,0.1,0.3,0.1,0.7,0.1c0.4,0,1-0.1,1.6,0.3c0,0,0.1,0.4,0.4,2c0.3,1.6,0.1,0.5,0.3,1.3c0.3,0.8,0.5,0.1,0.6,0.6
			c0,0.6-0.2,0.3-0.5,0.5c-0.3,0.2-0.8-0.5-0.8-0.5s-0.2-0.8-0.3-1.3c-0.2-0.5-0.4-1-0.9-1.2c-0.5-0.2-1.5-0.6-2-1
			c-0.5-0.4-1.5-0.7-1.5-0.4c0,0.3-0.2,1-0.3,1.3c-0.1,0.3,0.1,1.6,0.1,1.6l-0.2,0.4l-0.7-1.4c0,0,0.4-1.9,0.2-2.1
			c-0.2-0.3-0.9-1.2-0.9-1.2l-0.5-0.2c-2,4.3-3.4,9-4.1,14.2c-0.5,3.9-0.9,7.8-1.2,11.6c0.1,0.2,0.2,0.4,0.2,0.5
			c0.2,0.5,0,3.3-0.5,4.5c0,1-0.1,2-0.1,2.9c0.1,0.4,0.2,0.7,0.2,1.2c0,0.9-0.1,2.4-0.1,2.8c0,0.1-0.1,0.3-0.2,0.5
			c0,12.8,1.3,24.5,3.2,34.5c0.8,0.1,2,0.1,2,0.1L276,274c0.1,0.1,0.2,0.2,0.1,0.2c0,0.2-0.2,0.8-0.4,1.1c1.3,6.3,2.7,11.8,4.1,16.6
			l0.6,0.4c0,0,0.3,0.6,0.3,0.8c0,0.2,0.1,0.7,0.2,0.9c0.1,0.3,0.1,0.6,0.1,0.8c0,0.1-0.1,0.4-0.1,0.7c0.2,0.7,0.4,1.3,0.6,2
			c0.2,0.2,0.3,0.4,0.3,0.5c0.1,0.2,0.2,0.4,0.4,0.6c0.2,0.1,1,1.1,1,1.1s0.2,0.8-0.1,0.4c-0.2-0.2-0.6-0.5-1-0.7
			c0.3,0.9,0.6,1.8,0.9,2.6c0.2,0,0-0.3,0.4,0.3c0.4,0.6,0.8,0.8,0.4,1.3c-0.1,0.1-0.1,0.1-0.1,0.2c1.6,4,2.6,6.2,2.6,6.2
			c2.5,6.6,9.4,15.4,17.1,24.6c0.3,0.8,2.1,3.2,3.3,3.9c3,3.5,6,7,8.8,10.4c17.5,2.5,35.8,3.9,54.8,3.9c1.5,0,3,0,4.5,0
			c0.4-0.7,0.9-1.3,1.1-1.4c0.2,0,0.5,0.6,0.8,1.3c2.8,0,5.5-0.1,8.2-0.2c18.8-0.7,36.9-2.6,54.2-5.7c1.8-3.3,3.8-6.7,5.8-10.2
			c-0.1-1-0.1-1.9,0.3-2.3c0.3-0.3,0.7-0.2,1.1-0.1c3.2-5.2,6.5-10.6,9.5-15.7c-0.1-0.9-0.1-1.5,0.7-2.2c0.4-0.3,0.6-0.4,0.8-0.5
			c1.4-2.4,2.7-4.7,3.8-7c-0.2-0.7-0.4-1.3-0.3-1.7c0.3-0.7,0.4-0.7,1.1-1.7c0.4-0.6,0.9-0.7,1.3-1c1.5-3.3,2.6-6.3,3.1-8.9
			c0,0,0.9-3.1,2-8.5C468.7,287,468.6,286.8,468.6,286.7z M305.8,336c-0.3-0.5-1.4-1.7-1.4-1.7c0.5,0.4,1,0.4,1.7,0.8
			c0.7,0.4,1.5,2,1.6,2.3C307.8,337.7,306.1,336.4,305.8,336z M358.5,251.3c-0.1,3.7-3.2,6.8-6.9,6.8c0,0-29.3,0.4-42.3,8.8
			c-6.2,4-25.3-52.7,15.2-55.8C360.6,208.2,358.5,251.3,358.5,251.3z M389.1,297.3c-2.8,0.5-5-1.6-7.7-2.2c-2.2-0.5-2.5-1.8-4-2.8
			c-0.2,0.1-0.4,0.2-0.6,0.3c-2.8,1.9-3,1.5-5.7,2.7c-2.3,1-5.8,2.3-7,1c-5.7-6.4,3.7-33,11.4-32.1c0.4-0.2,0.8-0.3,1.2-0.3
			C385,263.8,398.8,295.6,389.1,297.3z M439.1,260.1c-5.7-2.9-14.1-4.1-21.9-4.6c-0.7,0.2-1.1,0.4-1.8,0.4c-0.3,0-0.6-0.2-0.9-0.6
			c-10-0.4-18.5,0.4-18.5,0.4c-3.7,0.3-7.1-2.4-7.6-6.1c0,0-6.6-42.6,29.6-43.6C458.8,205.1,445.6,263.4,439.1,260.1z"/>
		<path d="M385.3,372.7c-4.9,0.2-9.9,0.3-14.7,0.3c-17.9,0-35.2-1.2-51.7-3.5c5.4,6.7,17.6,17.9,19.4,22.9c0,0,34.2,1.5,45.5,0
			c12.6-1.6,49.1-13,49.1-13c0.7-3.4,2.4-7.5,4.7-12C420.8,370.2,403.3,372.1,385.3,372.7z"/>
		<g>
			<path d="M321.6,360c-2.4,0-4.5-1.7-5-4.2l-2.1-11.8c-0.5-2.7,1.3-5.4,4.1-5.8c2.7-0.5,5.4,1.3,5.8,4.1l2.1,11.8
				c0.5,2.7-1.3,5.4-4.1,5.8C322.2,360,321.9,360,321.6,360L321.6,360z"/>
		</g>
		<g>
			<path d="M340.4,356.8c-2.6,0-2.7,2.3-2.8-0.3l-0.8-14.1c-0.2-2.8,2-5.2,4.7-5.3c2.8-0.2,5.2,1.9,5.3,4.7l0.8,14.1
				c0.2,2.8-0.3,1.9-3.1,2.1c-0.1,0,0,0-2.3-0.4L340.4,356.8z"/>
		</g>
		<g>
			<path d="M368.6,362.7c-2.6,0-4.8-2-5-4.6l-1.1-13.2c-0.2-2.8,1.8-5.2,4.6-5.4c2.8-0.2,5.2,1.8,5.4,4.6l1,13.2
				c0.2,2.8-1.9,5.2-4.6,5.4C368.9,362.7,368.8,362.7,368.6,362.7L368.6,362.7z"/>
		</g>
		<g>
			<path d="M413.1,363.1c-2.4,0-4.6-1.8-5-4.3l-2.8-18.1c-0.4-2.7,1.5-5.3,4.2-5.8c2.8-0.4,5.3,1.5,5.8,4.2l2.8,18.1
				c0.4,2.7-1.5,5.3-4.2,5.8C413.6,363.1,413.3,363.1,413.1,363.1L413.1,363.1z"/>
		</g>
		<g>
			<path d="M433.3,361.2c-0.3,0-0.6,0-0.9-0.1c-2.7-0.5-4.6-3.1-4.1-5.8l2.1-12.2c0.5-2.7,3.1-4.6,5.8-4.1c2.7,0.5,4.6,3.1,4.1,5.8
				l-2.1,12.2C437.9,359.5,435.7,361.2,433.3,361.2L433.3,361.2z"/>
		</g>
		<g>
			<path d="M358.1,383.4c-2.1,0-4.1-1.4-4.8-3.5l-3.8-12c-0.8-2.7,0.6-5.5,3.3-6.3c2.7-0.8,5.5,0.6,6.3,3.3l3.8,12
				c0.8,2.7-0.6,5.5-3.3,6.3C359.1,383.3,358.6,383.4,358.1,383.4L358.1,383.4z"/>
		</g>
		<g>
			<path d="M392.4,377l1.6-10.3c0.4-2.8-1.4-5.3-4.2-5.8c-2.7-0.4-5.3,1.5-5.8,4.2l-1.9,12.4c-0.1,0.5-0.1,1,0,1.5
				C385.3,378,388.7,377.4,392.4,377z"/>
		</g>
		<path fill="#FFFFFF" d="M483.3,141.2c-1.8-21.1-20.3-36.8-41.4-35.1c-0.5,0-1.1,0.1-1.6,0.2c1.1-3.7,1.5-7.7,1.2-11.8
			c-1.5-18-17-31.4-34.8-30.5c-1.5-13.6-13.6-23.6-27.3-22.5c-13.8,1.2-24.1,13.2-23.2,27c-14.9,3.1-26.5,14.2-30.5,28.4
			c-15.3,1.5-26.6,15-25.4,30.4c0,0.1,0,0.1,0,0.2c-2.4-0.4-4.8-0.6-7.3-0.3c-15.9,1.3-27.8,15.3-26.5,31.3
			c1.3,15.9,15.3,27.8,31.3,26.5c7.4-0.6,13.9-4,18.7-9c7,10,18.9,16.1,32,15c13-1.1,23.8-9.1,29-20.1c5.3,5.3,12.9,8.4,21,7.7
			c7.1-0.6,13.3-4,17.7-8.9c7.8,8.8,19.4,14,32,13C469.4,180.9,485.1,162.3,483.3,141.2z"/>
		<g>
			<path fill="#FFFFFF" d="M515.5,187.8c0,9.2-7.5,16.6-16.6,16.6c-9.2,0-16.6-7.5-16.6-16.6c0-9.2,7.5-16.6,16.6-16.6
				C508,171.2,515.5,178.6,515.5,187.8z"/>
			<path d="M498.9,206.1c-10.1,0-18.3-8.2-18.3-18.3c0-10.1,8.2-18.3,18.3-18.3c10.1,0,18.3,8.2,18.3,18.3
				C517.1,197.9,508.9,206.1,498.9,206.1L498.9,206.1z M498.9,172.8c-8.3,0-15,6.7-15,15c0,8.3,6.7,15,15,15c8.3,0,15-6.7,15-15
				C513.8,179.6,507.1,172.8,498.9,172.8L498.9,172.8z"/>
		</g>
		<g>
			<path fill="#FFFFFF" d="M326.3,53.6c0,9.2-7.5,16.6-16.6,16.6c-9.2,0-16.6-7.5-16.6-16.6c0-9.2,7.5-16.7,16.6-16.7
				C318.8,37,326.3,44.4,326.3,53.6z"/>
			<path d="M309.6,71.9c-10.1,0-18.3-8.2-18.3-18.3c0-10.1,8.2-18.3,18.3-18.3c10.1,0,18.3,8.2,18.3,18.3
				C327.9,63.7,319.7,71.9,309.6,71.9L309.6,71.9z M309.6,38.6c-8.3,0-15,6.7-15,15c0,8.3,6.7,15,15,15c8.3,0,15-6.7,15-15
				C324.6,45.3,317.9,38.6,309.6,38.6L309.6,38.6z"/>
		</g>
		<path fill="none" stroke="#E6E6E6" stroke-width="2" stroke-linecap="round" d="M435.5,174.3c9.1,2.8,34.4-0.3,40.2-26.1"/>
		<path fill="#FFFFFF" stroke="#E6E6E6" stroke-width="1.5" stroke-linecap="round" d="M497.9,199.9c4.4,0,12.2-6.4,12.2-12.2"/>
		<g>
			<g>
				<path fill="#FFFFFF" d="M247.9,153.9c0,5.8-4.7,10.6-10.6,10.6c-5.8,0-10.6-4.7-10.6-10.6c0-5.8,4.7-10.6,10.6-10.6
					C243.2,143.3,247.9,148.1,247.9,153.9z"/>
				<path d="M237.3,165.5c-6.4,0-11.6-5.2-11.6-11.6c0-6.4,5.2-11.6,11.6-11.6c6.4,0,11.6,5.2,11.6,11.6
					C248.9,160.3,243.7,165.5,237.3,165.5L237.3,165.5z M237.3,144.4c-5.2,0-9.5,4.3-9.5,9.5s4.3,9.5,9.5,9.5c5.2,0,9.5-4.3,9.5-9.5
					S242.6,144.4,237.3,144.4L237.3,144.4z"/>
			</g>
			<path fill="#FFFFFF" stroke="#E6E6E6" stroke-width="1.5" stroke-linecap="round" d="M239.4,160.6c2.2,0,5-1.5,5-5"/>
		</g>
		<path fill="#FFFFFF" stroke="#E6E6E6" stroke-width="1.5" stroke-linecap="round" d="M310.6,65.7c6.3,0,11.5-7.4,11.5-11.5"/>
		<path fill="#FFFFFF" stroke="#E6E6E6" stroke-width="1.5" stroke-linecap="round" d="M272.9,150.1"/>
		<path fill="#FFFFFF" d="M273.2,198.4"/>
		<path d="M281,317"/>
		<g>
			<path d="M59.5,237.2c0.5,2.6,0.9,6.3,1.4,9.5c0.6,2.1,0.9,4.8,1,6.5c0.4,2.2,0.5,4.7,0.9,6.8c0.1,1,0,2.8,0.2,3.8
				c0.1,1-0.2,2.4,0,3.4c0.6,5.4-2.4,13.5-2.4,13.5c0.7,1.5,9.5,1.8,15.6,9.1c15.4,18.9,18.6,30.4,28.3,45.2
				c2,2.9,9.1,16.2,9.9,18.1c2.9,6.4,9.7,34.2-0.4,41.9c-0.3-0.1-0.9-0.1-1.5-0.3c7.9-11.8,6.2-25.7,1.1-37.8
				c-2.3-5.4-7.8-16-12.4-23.7c-20.7-34.5-13.6-26.8-27.2-42.6c-2.9-3.3-10.9-9-14.9-7c-2.9,1.5,4,11.9,4.2,12.3
				c7.3,14.4,12.1,18.3,13.9,21.9c1.7,3.4,3.4,6.7,5,10.1c0.4,0.8,4.7,12.6,5.1,13.2c2.9,5.7,5.8,11.5,8.6,17.2
				c5.3,12.4,10.7,24.7,16.1,37c-0.4,0.2-0.9,0.5-1.3,0.7c-10.9-23.5-21.6-47-32.2-70.7c-13.8-23-10-14.1-17.1-28.1
				c-0.3-0.6-6-13.8-9.8-21.9c-14.8-32.5-22.3-54.1-29-69.1c-1-2.1-3.1-6.3-4.7-7.1c0.1-0.6,0.6-1.1,1.4-0.9
				c0.1-0.6,0.7-0.9,0.6-1.1c0,0,0.4,0.1-0.1,0.6c2.7-0.6,5.6-2.2,8.6-2.9c4.7-1,12,2.8,14.2,6c3.8,5,9.4,14.8,9.8,15.6
				C52.5,217,58.6,231.7,59.5,237.2z M48.9,215.3c-0.4-0.8-5.6-9.8-9.4-14c-1.8-2.3-6.5-5.2-11-4.6c-2.1,0.2-5.4,1.9-7.9,2.8
				c4.2,4.7,15.2,33,19.8,44.9c5.5,12.4,11.1,24.9,16.6,37.3c7.3-6.8,0.6-47.5-3.8-57.3C51.7,221.4,50.3,218.3,48.9,215.3z"/>
			<path d="M164.1,370c-2.5-2.3-6-7.7-7.9-11.2c-4.9-8.2-14.3-30.1-16.7-36c-1.1-2.8-2.3-5.7-3.4-8.5c-0.3-0.7-1-1.6-1.3-2.5
				c-2-5-3.3-11.8-5.6-16.7c-2.1-4.5-9.7-22.4-14.2-37.7c-10.6-25.2-21.1-50.5-31.8-75.7c-0.3-0.6-3.3-3.7-4.6-6.2
				c-0.6,0.3-0.7,0-1.5-0.1c3.7,12.4,7.5,24.8,11.4,37.1c0.3,0.6,7.1,21.4,8.8,28.6c1.4,5,2.9,16.3,2.9,17.1
				c0.3,0.7,0.6,1.4,0.9,2.2c2.5-1.6,6.7-3.3,10.1-4.2c-0.7,1.3-4.7,3.4-6.3,4.1c-1.1,0.5-2.1,0.4-3,0.5c5.5,19.8,10.5,40.9,18,60.1
				c1,3.1,7.8,26.5,11.5,36.9c2.3,8.1,4.6,16.2,7,24.3c-0.5,0-2-0.1-2.2-0.8c-0.5-1.1-6.2-21.7-7.6-25.1c-0.9-2.7-2.6-7.1-3.3-10.6
				c-0.8-4.5-4.4-8.6-2.8-11.6c0,0-0.7-0.2-0.9-0.1c0.1-0.3,0.3-0.6,0.4-1c0,0-0.3-0.1-0.8,0.1c-10.6-32.2-12.7-33.6-13.3-44.3
				c-0.3,0.7-0.1,1.3-0.2,1.6c-1-11.1-7.8-20.1-10.2-36.4c-1.6-12.3-6.4-24.5-9.2-35.3c-0.3,0.2-0.5,0.4-0.8,0.6
				c-2.7-8.5-5.3-17.1-7.9-25.7c0,0,0.1,0.2,0.9,0.4c-0.1-1-1.1-1.8-1.5-2.7c1.7-1.7,1.3-2,0-3.3c-0.3,0.9-0.5,1.5-0.2,2.1
				c-1.4-3.5-2.2-8-3.8-11.9c0.5,0.3,0.6,0.5,1.4,0.7c-0.3-0.7-0.1-1.2-1.8-1c0.4-0.7,0.6-1,1.1-1.7c0,0-0.7,0-1,0.2
				c-0.3-1.6-2.4-3.3-0.4-5.4c7.1,0.6,13,12.7,16.1,20.6c1.4,3.4,2.7,6.8,4.1,10.2c0.3,0.9,4.3,10.7,6.3,14.9
				c5.4,12.8,10.9,25.6,16.3,38.4c0.5,1.3,0.7,4.3,5.7,16.7c3.3,8.2,6.5,16.4,9.8,24.6c1.5,5.2,3,10.4,4.5,15.6
				c0.3,0.7,2.3,3.6,2.7,4.5c1.3,3.3,2.7,6.7,4,10c3.8,8.9,7.5,17.9,11.3,26.8c0.5,0.6,8,11.2,8.9,13.6
				C164,367.8,163.8,369.1,164.1,370z M89.9,221c-0.2-0.6-0.5-1.2-0.7-1.7c-0.3,0.1-0.6,0.2-0.9,0.4c0.2,0.6,0.5,1.2,0.7,1.7
				C89.3,221.2,89.6,221.1,89.9,221z M87.3,213.2c-0.2-0.4-0.4-0.9-0.5-1.3c-0.3,0.1-0.6,0.2-0.9,0.4c0.2,0.4,0.4,0.9,0.5,1.3
				C86.8,213.4,87.1,213.3,87.3,213.2z M84.1,204.6c-0.2-0.4-0.4-0.9-0.5-1.3c-0.3,0.1-0.6,0.3-0.9,0.4c0.2,0.4,0.4,0.9,0.5,1.3
				C83.6,204.9,83.8,204.7,84.1,204.6z M82.3,198.5c-0.3,0.1-0.6,0.3-0.9,0.4c0.3,0.9,0.5,1.8,0.8,2.7c0.2-0.1,0.4-0.2,0.6-0.2
				C82.6,200.4,82.5,199.5,82.3,198.5z M79,187.2c-0.2,0.1-0.4,0.2-0.6,0.2c-0.2-0.4-0.4-0.9-0.5-1.3c0.2-0.1,0.4-0.2,0.6-0.2
				C78.7,186.3,78.9,186.7,79,187.2z M75.4,174c-0.3,0.1-0.6,0.3-0.9,0.4c0.1,0.6,0.2,1.1,0.3,1.6c0.2-0.1,0.4-0.2,0.6-0.2
				C75.4,175.2,75.4,174.6,75.4,174z M75,172.9c-0.2-0.4-0.4-0.9-0.5-1.3c-0.3,0.1-0.6,0.3-0.9,0.4c0.2,0.4,0.4,0.9,0.5,1.3
				C74.3,173.2,74.7,173,75,172.9z"/>
			<path d="M192.5,355.6c-0.4,1.1-0.9,5-3,5.7c-6.5,2.3-8.6-8.9-9.2-10.4c-1.6-3.9-4.9-10-6.1-13.5c-0.9-2.4-4.9-15.9-6.9-24.9
				c-5.4-14.9-10.7-29.7-16.1-44.5c-5.1-8.1-4.8-18.2-17.2-25.5c6.7,20,13.4,40,20.2,60c1,6.6,3.3,7.3,4.4,10.4
				c2.6,7,5.1,13.9,7.7,20.9c2.6,9.8,5.2,19.6,7.9,29.3c-1.2,0.2-2.9-2.7-3.1-3.3c-0.3-0.7-1.1-2.9-1.1-4.4
				c-1.9-10.8-4-13.5-5.6-19.4c-0.7-2.7-2-6.3-3.3-9.5c-2.4-7.1-6.3-13.9-7.3-20.3c0,0-0.3-0.1-0.8,0.1
				c-8.3-22.9,6.3,13.7-24.9-69.3c-0.2-8.4-5.8-19.1-9-28.7c-0.6-2.5-2.9-8.7-3.1-9.3c-1.3-3.4-2.5-6.9-3.8-10.3
				c-0.2-0.7-3.6-11.7-3.9-12.5c-1.7-4.6-6.8-12.7-7-13.4c-0.3-0.7-0.5-1.5-0.8-2.2c1.2-0.5,2.5,0.1,3.4-0.3
				c1.2-0.5,1.5-0.8,2.7-1.2c10.7-3.8,21.8,16.5,22.9,20c1.1,3.2,2.2,6.5,3.3,9.8c0.2,0.7,4.1,9,4.4,9.9c4.2,12.5,5.3,36.3-1.7,42.9
				c8.5,2.6,11.5,13.8,15.3,19.4c6.1,16.8,12.2,33.6,18.3,50.5c2.2,8,4.5,16,6.8,24c0.2,0.7,3.5,7.5,3.8,8.4
				c1.1,3.2,2.3,6.5,3.4,9.7c0.4,1.1,2.2,6.9,5.7,5.7C189.4,358.9,191.1,356.3,192.5,355.6z M134.9,200.7
				c-4.2-12.4-17.1-47-31.4-38.6c3.1,3.6,3.5,7.7,7,13.4c2.6,8.1,5.2,16.2,7.9,24.3c1,2.8,2,5.6,3.1,8.4
				c13.5,36.8,5.9,20.6,11.4,32.8c5.2-4.9,5.4-17.9,5.4-23.4C137.3,212.5,135.1,201.3,134.9,200.7z"/>
			<path d="M159,147.8c-0.4,0.1-0.8,0.2-1.3,0.4c-0.9,0.3-4,0.2-6.9,0.8c-1.3,2.3,7.2,22.8,7.8,24.6c4.8,24.3,9.8,48.5,15,72.6
				c4-1.7,10.7-2.5,13.8-5.4c0.6,0,1.2,0,1.8,0c-0.2,1.5-5,4.4-5.9,4.6c-0.8,0.2-7.4,2.3-8.3,2.5c-1.4,0.4,4,25.3,8.2,37.5
				c3.2,10.3,6.3,20.6,9.5,30.9c1.2,4,9.1,35.5,10.7,39.4c5-1.3,10.3-3,15.8-4.3c0.1,2.2-2.4,2.9-3.4,3.2c-0.5,0.1-1.7,0.3-2.3-0.1
				c-0.2,0.3-0.3,0.6-0.5,0.9c-2.2,0.4-5.8,1-6.7,1.3c-0.9,0.3-2.3,1-3.1,0c-0.2,0.3-0.3,0.6,0.1,1c-2.1-0.3-2.8-2.3-3.5-4.5
				c0,0-5.8-23.7-6.9-27.1c-1-3-2-6.1-2.9-9.1c-3-10.3-6-20.6-9-30.8c-6.5-26.8-12.7-53.7-18.7-80.6c-1.1-7.1-2.2-14.2-3.3-21.3
				c-3.2-9.5-6.5-18.9-9.7-28.4c-0.7-2.2-0.9-5.1-1.6-7.6c0.4,0.1,0.4,0.4,1.7,0c0.9-0.3,0.7-1,2-1.3c0.9-0.3,4.9-0.7,6.2-1.1
				c1.3-0.4,6.5-2.2,14.5-4.3C171.6,143.2,164,146.3,159,147.8z M202.4,356.8c-0.2,0.1-0.3,0.1-0.5,0.1c-0.5-1-1-2-1.5-3
				c0.2-0.1,0.5-0.2,0.7-0.2C201.6,354.8,202,355.8,202.4,356.8z M201.1,352.6c-0.2,0.1-0.3,0.1-0.5,0.2c-0.1-0.4-0.3-0.9-0.4-1.3
				c0.2,0,0.3-0.1,0.5-0.2C200.8,351.7,200.9,352.1,201.1,352.6z M200.7,350c-0.2,0.1-0.5,0.1-0.7,0.2c-0.1-0.4-0.2-0.7-0.4-1.1
				c0.2-0.1,0.5-0.1,0.7-0.2C200.5,349.2,200.6,349.6,200.7,350z M196.8,334.3c0.5,1.9,1,3.8,1.5,5.7c-0.2,0.1-0.5,0.2-0.7,0.2
				c-0.4-1.9-0.9-3.8-1.3-5.7C196.5,334.4,196.6,334.3,196.8,334.3z M199.7,344.4c-0.2,0.1-0.5,0.2-0.7,0.2c-0.3-1-0.6-1.9-0.9-2.9
				c0.2-0.1,0.5-0.2,0.7-0.2C199.1,342.5,199.4,343.4,199.7,344.4z M193.4,323.8c-0.2,0.1-0.3,0.1-0.5,0.2c-0.2-0.7-0.5-1.5-0.7-2.2
				c0.2-0.1,0.3-0.1,0.5-0.2C193,322.3,193.2,323,193.4,323.8z M195.9,331.6c-0.2,0.1-0.3,0.1-0.5,0.2c-0.5-1.4-0.9-2.8-1.4-4.2
				c0.2,0,0.3-0.1,0.5-0.2C195,328.7,195.5,330.2,195.9,331.6z M191.1,314.9c-0.3,0.1-0.5,0.2-0.8,0.2c-0.1-0.4-0.2-0.7-0.4-1.1
				c0.2-0.1,0.5-0.2,0.7-0.2C190.9,314.1,191,314.5,191.1,314.9z M192.4,318.7c-0.2,0.1-0.5,0.2-0.7,0.2c-0.2-0.5-0.3-1-0.5-1.6
				c0.3-0.1,0.5-0.2,0.7-0.2C192,317.6,192.2,318.2,192.4,318.7z M180.1,276.6c-0.2,0.1-0.4,0.1-0.5,0.2c-0.5-1.6-1-3.3-1.6-4.9
				c0.2-0.1,0.4-0.1,0.5-0.2C179.1,273.3,179.6,274.9,180.1,276.6z M176.9,261.6c-0.3-1-0.6-1.9-0.9-2.9c-0.3,0.1-0.5,0.2-0.8,0.3
				c0.3,1,0.6,1.9,0.9,2.9C176.3,261.8,176.6,261.7,176.9,261.6z M173.9,249.3c-0.1-0.4-0.3-0.9-0.4-1.3c-0.3,0.1-0.6,0.2-0.8,0.3
				c0.1,0.4,0.3,0.9,0.4,1.3C173.4,249.4,173.6,249.4,173.9,249.3z M151.4,157.8c-0.4-1.3-0.8-2.5-1.2-3.8c-0.3,0.1-0.6,0.2-0.9,0.3
				c0.4,1.3,0.8,2.5,1.2,3.8C150.8,158,151.1,157.9,151.4,157.8z"/>
			<path d="M586.9,187.1c-1.2,2.3-3.3,5.5-4.9,8.2c-0.8,2-2.3,4.3-3.3,5.7c-1.1,1.9-2.5,4-3.6,5.9c-0.5,0.8-1.8,2.2-2.3,3.1
				c-0.5,0.8-1.7,1.8-2.2,2.6c-2.9,4.6-10.3,8.9-10.2,8.9c-0.3,1.6,6.1,7.4,6.1,16.9c-0.1,24.3-4.9,35.3-6.8,52.9
				c-0.3,3.5-3.3,18.3-3.8,20.3c-1.8,6.8-14,32.6-26.5,32.2c-0.2-0.3-0.6-0.6-1-1.2c13.4-4.2,20.8-16,24.5-28.7
				c1.7-5.6,4.1-17.4,5.5-26.2c5.9-39.8,6.5-29.3,6-50.2c-0.1-4.4-2.6-13.9-6.9-14.8c-3.1-0.7-4.4,11.7-4.5,12.2
				c-3.5,15.8-2.3,21.8-3.2,25.7c-0.8,3.7-1.7,7.3-2.5,11c-0.2,0.9-4.3,12.7-4.4,13.4c-1.4,6.3-2.8,12.5-4.2,18.8
				c-3.7,13-7.4,25.9-11,38.9c-0.5-0.1-0.9-0.2-1.4-0.3c6.5-25.1,13-50.1,19.7-75.1c3.9-26.5,1.2-17.3,4.6-32.6
				c0.1-0.7,4.1-14.5,6.3-23.1c9.1-34.5,16.9-56,21.2-71.9c0.5-2.3,1.6-6.9,0.9-8.4c0.4-0.4,1.1-0.5,1.6,0.1
				c0.4-0.4,1.1-0.2,1.1-0.5c0,0,0.3,0.3-0.4,0.4c2.4,1.3,5.6,1.8,8.4,3.2c4.2,2.2,7.3,9.8,7,13.6c-0.2,6.2-2.1,17.4-2.3,18.3
				C594.3,167,589.7,182.3,586.9,187.1z M592.6,163.4c0.2-0.9,1.8-11.1,1.6-16.8c0.1-2.9-1.7-8.1-5.5-10.5c-1.7-1.1-5.2-2-7.7-2.8
				c0.2,6.3-9.1,35.2-13.1,47.3c-3.6,13.1-7.2,26.3-10.7,39.4c9.8-0.7,30.1-36.4,32.9-46.8C591,169.9,591.8,166.6,592.6,163.4z"/>
			<path d="M615.5,252.8c-1.1,3.6-2.3,7.3-3.5,10.9c-0.3,0.9-2.3,7.4-3.9,10.3c-4.2,11.3-8.3,22.6-12.4,33.9
				c-2.4,4.9-6.2,13.5-9.5,19.9c-0.3,0.9-9.1,26.6-19.1,23.7c-7.9-2.3-3.3-20.2-2.5-23.4c0.8-2.9,1.6-5.9,2.4-8.8
				c0.2-0.7,4-16.4,4.1-17.1c4.9-18.3,21.8-64.5,22.5-66.5c1.1-3.8,2.1-7.7,3.2-11.5c6.8-17.7,13.7-35.3,20.7-52.8
				c0.2-0.7,5.2-8.8,6.4-12.8c2.4-8.3,7.7-16.1,20.7-12.1c6.9,2.2,7.1,10.4,6.5,14.1c-0.1,0.4-0.5,0.4-4.9,15.2
				C635.9,201.4,625.6,227,615.5,252.8z M570.5,310.1c-0.2-0.1-0.3-0.1-0.5-0.1c0.1-0.4,0.2-0.8,0.3-1.1c0.2,0,0.3,0.1,0.5,0.1
				C570.7,309.3,570.6,309.7,570.5,310.1z M570.3,312.9c-0.3-0.1-0.5-0.1-0.7-0.2c0.1-0.6,0.1-1.1,0.2-1.7c0.2,0.1,0.3,0.1,0.5,0.1
				C570.2,311.8,570.3,312.4,570.3,312.9z M569.3,316.3c-0.3-0.1-0.5-0.1-0.7-0.2c0.1-0.4,0.2-0.8,0.3-1.1c0.2,0.1,0.5,0.1,0.7,0.2
				C569.6,315.6,569.4,315.9,569.3,316.3z M567.9,321.5c-0.3-0.1-0.5-0.1-0.7-0.2c0.4-1.6,0.9-3.2,1.3-4.7c0.3,0.1,0.5,0.1,0.7,0.2
				C568.8,318.4,568.3,319.9,567.9,321.5z M567.4,323.5c-0.3-0.1-0.5-0.1-0.7-0.2c0.1-0.5,0.3-1.1,0.4-1.6c0.2,0.1,0.5,0.1,0.7,0.2
				C567.6,322.5,567.5,323,567.4,323.5z M566.2,327.6c-0.2-0.1-0.5-0.1-0.7-0.2c0.3-1.2,0.7-2.4,1-3.6c0.2,0.1,0.5,0.1,0.7,0.2
				C566.9,325.2,566.6,326.4,566.2,327.6z M564.3,334.4c-0.2-0.1-0.5-0.1-0.7-0.2c0.2-0.6,0.3-1.2,0.5-1.8c0.2,0.1,0.5,0.1,0.7,0.2
				C564.7,333.2,564.5,333.8,564.3,334.4z M582.1,271.2c0.1-0.5,0.3-1.1,0.4-1.6c-0.2,0-0.4-0.1-0.5-0.1c-0.1,0.5-0.3,1.1-0.4,1.6
				C581.8,271.1,581.9,271.2,582.1,271.2z M579.7,280c0.2-0.6,0.3-1.2,0.5-1.8c-0.2-0.1-0.4-0.1-0.5-0.1c-0.2,0.6-0.3,1.2-0.5,1.8
				C579.3,279.9,579.5,280,579.7,280z M578,286.1c0.1-0.4,0.2-0.7,0.3-1.1c-0.2,0-0.4-0.1-0.5-0.1c-0.1,0.4-0.2,0.8-0.3,1.1
				C577.6,286,577.8,286.1,578,286.1z M583.8,267.3c0.1-0.4,0.3-0.9,0.4-1.4c-0.3-0.1-0.5-0.1-0.8-0.2c-0.1,0.4-0.2,0.9-0.4,1.4
				C583.3,267.1,583.5,267.2,583.8,267.3z M649.2,159.7c0.4-1.3,0.1-9.8-5.6-11.6c-1.3-0.4-6,0.4-8.3,0.2c-0.1,0.2,0.4,0.9-0.3,0.9
				c-0.2-0.3,0.4-0.1-0.9-0.5c-1.6-0.5-2.3,2-3,3c-0.8-0.3-1.7-0.5-2.5-0.8c-0.1,2.7-0.9,2.9-1.6,5.4c-7.5,17.5-14.9,35.1-22.1,52.7
				c-0.7,2.6-1.5,5.1-2.2,7.7c-7.5,20.8-14.8,41.6-22.1,62.5c-0.9,3.1-1.7,6.2-2.6,9.3c-0.2,0.7-4.1,12.7-4.3,13.4
				c-1.1,3.8-2.1,7.7-3.2,11.5c-1.7,6.1-2,12.8-5.8,20c1.4,3.3-4,13.7,3.5,15.9c0.7,0.2-0.2-0.3,0.8,0c6,1.8,17.1-24,17.8-26.2
				c6-14.8,12.1-29.6,18.3-44.4c-0.4-3.3,3-9.6,3.9-12.3c2.8-8.8,5.5-17.6,8.3-26.4c2.8-9.4,23.6-55.5,23.8-55.6
				C643.9,176,646.6,167.9,649.2,159.7z M585.3,262.9c0.1-0.4,0.2-0.8,0.3-1.1c-0.2,0-0.4-0.1-0.5-0.1c-0.1,0.4-0.2,0.8-0.3,1.1
				C585,262.8,585.1,262.8,585.3,262.9z M587.6,256.9c0.1-0.5,0.3-1,0.4-1.6c-0.3-0.1-0.6-0.2-0.8-0.2c-0.1,0.5-0.3,1.1-0.4,1.6
				C587,256.8,587.3,256.8,587.6,256.9z M596.4,231.6c0.3-1,0.5-1.9,0.8-2.9c-0.3-0.1-0.6-0.2-0.9-0.2c-0.3,1-0.6,2-0.8,2.9
				C595.9,231.5,596.2,231.6,596.4,231.6z M604,209.4c0.2-0.6,0.3-1.2,0.5-1.8c-0.2-0.1-0.4-0.1-0.6-0.2c-0.2,0.6-0.3,1.2-0.5,1.8
				C603.6,209.3,603.8,209.3,604,209.4z M607.7,199.7c-0.2-0.1-0.4-0.1-0.6-0.2c-0.3,0.3-0.6,0.6-0.9,1c0.2,0.1,0.3,0.3,0.5,0.4
				C607,200.5,607.3,200.1,607.7,199.7z M605.9,204.8c0.2-0.6,0.3-1.2,0.5-1.8c-0.3-0.1-0.6-0.2-0.9-0.3c-0.2,0.6-0.3,1.2-0.5,1.8
				C605.3,204.7,605.6,204.7,605.9,204.8z M609.2,196.7c0.3-1.1,0.6-2.3,1-3.4c-0.3-0.1-0.6-0.2-0.9-0.3c-0.3,1.1-0.6,2.3-1,3.4
				C608.6,196.6,608.9,196.7,609.2,196.7z M610.8,192.1c0.3-1.1,0.6-2.3,1-3.4c-0.2-0.1-0.4-0.1-0.6-0.2c-0.3,1.1-0.6,2.3-1,3.4
				C610.4,192,610.6,192,610.8,192.1z M650.4,157.1c0-1.4,0-2.8,0-4.2c-0.2-0.1-0.4-0.1-0.6-0.2c-0.1,1.4-0.2,2.7-0.3,4.1
				C649.8,156.9,650.1,157,650.4,157.1z"/>
			<path d="M664.9,227.5c0.2-0.7,0.5-1.3,0.3-1.6c-0.9,0.7-1.3,1.8-1.2,3.3c0.4-0.3,0.5-0.6,0.6-0.8c-0.4,1.1-1.3,2.7-1.8,4.1
				c0.2-0.7,0.2-1.4,0.2-2.2c-2.9,6.1-5.8,12.2-8.7,18.3c2.1-2.2,4.2-6.2,5.3-9.1c0,0.4,0.1,0.9,0.1,1.3c-3.1,5.7-6.2,11.4-9.2,17.1
				c0.1-0.2,0.2-0.7-0.1-1.5c-0.9,1.7-1.4,3-1.7,4.6c0.7-0.2,0.8-1.4,1.2-2.3c-1.7,4.6-3.2,9.6-4.9,14.2c-0.4-0.6-0.3-0.9-0.4-1.4
				c-0.6,0.8-0.7,1.8-0.2,2.9c-0.4,0.1,0.3,2.4-1.1-1.2c0.4,2.9,0,3.3-0.1,3.5c0.5-0.6,0.8-1.2,0.4-2.6c-0.7,1-1.7,2.9-1.3,4.3
				c0.7-0.2,0.4-0.3,0.5-0.6c-1,1.9-0.8,3.7-1.5,5.7c0.3-0.9,0.7-2,0.8-3c-6.2,15.1-12.4,30.3-18.5,45.4c-1.3-0.2-1.5,1-1.3,2
				c1-0.4,1.6-0.6,0.8-0.7c-0.3-0.1,1.1-0.6,1.3-1.3c1.4-3.8,2.8-7.6,4.2-11.4c0.3-0.9,6.8-16,7.4-16.8c1.4-3.9,2.9-7.8,4.3-11.6
				c-3.6,8.8-7.1,17.7-10.7,26.5c3.7-9.3,7.5-18.6,11.2-27.9c-7.2,19.1-14.4,38.2-21.5,57.3c-2.5,7.4-5,14.8-7.5,22.2
				c-0.2-0.1-1-0.1-1.3,0c-0.5-4.2,1.8-12.1,3.1-16.4c4.3-13.2,8.5-26.3,12.7-39.5c9.5-37.5,9.5-37.9,14.1-57
				c2.4-6.6,4.9-13.2,7.3-19.8c4.8-17.2,2.2-10.7,6-19.8c3.8-12.6,7.5-25.2,11.2-37.8c0.2-0.7,0.4-5.1,0.5-7.5
				c-0.8,0.5-2.1,3-2.3,3.7c-2.4,6.9-4.8,13.9-7.2,20.8c-0.2,0.7-5.3,10.6-7.5,16c-4.1,11-10.1,26.8-16.6,43.9
				c-1.9,3.7-3.8,7.5-5.6,11.2c-9.6,26.7-19.2,53.4-28.7,80.1c-1.8,6.3-3.7,12.6-5.6,18.9c-0.1-5.9,3.8-18.3,5.8-24.5
				c5.1-15.3,4.2-7.7,24-66.6c5.8-14,11.7-28.1,17.6-42.1c2.8-8.4,5.7-16.7,8.5-25.1c-0.4,0.4-0.8,1.5-1.2,2.6
				c0.6-1.8,2.8-4.3,3.4-7c-0.1,0.4-0.1,0.4,0.1,0.8c1.3-1.8,2.7-5,3-5.9c2.1-6.3,4.3-12.6,6.5-18.9c0.3-0.9,2.6-2.6,0.7-4
				c0.7,0,1.7,0.1,2-0.8c0.3-0.9,2.7-12,3.7-17.8c0.3,0.1,0.3,1.1,1.6,1.5c1.2,0.4,0.7,0,1.3,0.2c-2.1,24.3-7.3,41.4-13.6,59.3
				c-1.8,4.9-3.5,9.9-5.2,14.8c-4,13-8,26-12,39c-0.4,1.1-3.8,18.1-4.8,21.7c-3.3,13-6.5,24.3-9.9,36.6
				c8.3-22.6,16.6-45.2,24.9-67.8c0-0.8,4.4-8.6,8.4-16.9c8.8-17.5,15.2-38.6,29.7-57.7c0,0-0.5-0.4-0.8-0.6
				c3.1-4.6,6.6-11,8.8-17.7c0,0,0.7,0,1.4,0c0.2,0.3,0.8,0.8,1.3,1.3C685.8,188,671.4,208.4,664.9,227.5z M627.9,255.6
				c0.1-0.4,0.3-0.9,0.5-1.3c-0.3-0.1-0.6-0.2-0.8-0.3c-0.2,0.5-0.3,0.9-0.4,1.3C627.4,255.4,627.6,255.5,627.9,255.6z M646.4,207.4
				c0.2-0.4,0.3-0.9,0.5-1.3c-0.2-0.1-0.4-0.1-0.6-0.2c-0.2,0.4-0.3,0.9-0.5,1.3C646,207.3,646.2,207.3,646.4,207.4z M649,201.8
				c0.2-0.6,0.4-1.2,0.6-1.8c-0.3-0.1-0.6-0.2-0.9-0.3c-0.2,0.6-0.4,1.2-0.6,1.8C648.4,201.6,648.7,201.7,649,201.8z M650.6,198
				c-0.2-0.1-0.4-0.1-0.6-0.2c0.2-0.5,0.3-1,0.5-1.6c0.2,0.1,0.4,0.1,0.6,0.2C651,196.9,650.8,197.4,650.6,198z M653,192.8
				c-0.3-0.1-0.6-0.2-0.9-0.3c0.2-0.7,0.5-1.3,0.7-2c0.3,0.1,0.6,0.2,0.9,0.3C653.5,191.5,653.3,192.2,653,192.8z M666.9,161.4
				c0.2-0.4,0.3-0.9,0.5-1.3c-0.3-0.1-0.6-0.2-0.9-0.3c-0.2,0.4-0.3,0.9-0.5,1.3C666.3,161.2,666.6,161.3,666.9,161.4z M648.9,226.4
				c0.1-0.4,0.3-0.7,0.4-1.1c-0.3-0.1-0.6-0.2-0.9-0.3c-0.1,0.4-0.3,0.7-0.4,1.1C648.3,226.2,648.6,226.3,648.9,226.4z M622.8,329.4
				c-0.1,0.1-0.3,0.2-0.4,0.3c-0.3-0.3-0.6-0.5-0.8-0.8c0.1-0.1,0.3-0.2,0.4-0.4C622.3,328.8,622.6,329.1,622.8,329.4z M619.8,335.3
				c-0.2-0.1-0.3-0.1-0.5-0.2c0.7-1.8,1.3-3.7,2-5.5c0.2,0.1,0.3,0.1,0.5,0.2C621.2,331.6,620.5,333.4,619.8,335.3z M645.3,270
				c0.2-0.4,0.3-0.9,0.5-1.3c-0.3-0.1-0.5-0.2-0.8-0.3c-0.2,0.4-0.3,0.9-0.5,1.3C644.8,269.8,645.1,269.9,645.3,270z M654.4,248.8
				c-0.2-0.1-0.4-0.1-0.6-0.2c-0.5,0.9-1.1,1.8-1.6,2.7c0.3,0.1,0.5,0.2,0.8,0.3C653.5,250.7,654,249.7,654.4,248.8z M651.5,256
				c0.5-1.3,1-2.6,1.5-3.9c-0.3-0.1-0.6-0.2-0.8-0.3c-0.5,1.3-1,2.6-1.5,4C650.9,255.8,651.2,255.9,651.5,256z M668.3,218.5
				c0.1-0.4,0.3-0.7,0.4-1.1c-0.3-0.1-0.6-0.2-0.9-0.3c-0.1,0.4-0.3,0.7-0.4,1.1C667.7,218.3,668,218.4,668.3,218.5z M660.5,239.3
				c0.3-0.8,0.6-1.6,0.9-2.4c-0.3-0.1-0.6-0.2-0.8-0.3c-0.3,0.8-0.6,1.6-0.9,2.4C659.9,239.1,660.2,239.2,660.5,239.3z"/>
			<path d="M728.7,184.3c-0.4-0.2-0.8-0.3-1.2-0.5c-0.9-0.4-3.3-2.4-5.9-3.8c-2.6,0.9-9,22.1-9.8,23.8
				c-11.9,21.7-23.6,43.5-35.1,65.3c4.2,1.2,9.9,5,14.2,4.8c0.5,0.4,0.9,0.8,1.4,1.1c-1.1,1-6.7,0.1-7.5-0.2c-0.8-0.4-7.2-3.1-8-3.4
				c-1.4-0.6-13.1,22-17.7,34c-4.2,9.9-8.4,19.9-12.5,29.8c-1.6,3.9-15.8,33.1-17.1,37.1c4.7,2.2,9.9,4.4,15.1,6.9
				c-1.3,1.7-3.8,0.7-4.7,0.3c-0.5-0.2-1.5-0.9-1.8-1.5c-0.3,0.1-0.6,0.2-1,0.4c-1.9-1.1-5.2-2.9-6.1-3.3c-0.9-0.4-2.4-0.7-2.4-2
				c-0.3,0.1-0.6,0.2-0.6,0.8c-1.5-1.6-0.7-3.6,0.2-5.7c0,0,10.8-21.9,12.1-25.2c1.2-3,2.4-5.9,3.6-8.9c4.3-9.8,8.5-19.6,12.8-29.5
				c12.2-24.7,24.7-49.3,37.4-73.9c3.7-6.2,7.4-12.3,11.1-18.5c3.6-9.3,7.2-18.7,10.8-28c0.9-2.2,2.6-4.5,3.6-6.9
				c0.2,0.3,0.1,0.6,1.3,1.1c0.9,0.4,1.2-0.3,2.4,0.3c0.9,0.4,4.3,2.6,5.5,3.2c1.2,0.5,6.5,2.6,14,6
				C741.5,189,733.6,186.4,728.7,184.3z M627.9,372.5c-0.2-0.1-0.3-0.1-0.5-0.2c0.3-1.1,0.5-2.2,0.8-3.2c0.2,0.1,0.5,0.2,0.7,0.3
				C628.5,370.5,628.2,371.5,627.9,372.5z M629.5,368.4c-0.1-0.1-0.3-0.1-0.5-0.2c0.2-0.4,0.4-0.9,0.5-1.3c0.2,0.1,0.3,0.1,0.5,0.2
				C629.9,367.5,629.7,368,629.5,368.4z M631,366.2c-0.2-0.1-0.5-0.2-0.7-0.3c0.1-0.4,0.3-0.7,0.4-1.1c0.2,0.1,0.5,0.2,0.7,0.3
				C631.3,365.5,631.1,365.8,631,366.2z M638,351.6c-0.8,1.8-1.6,3.6-2.5,5.3c-0.2-0.1-0.5-0.2-0.7-0.3c0.9-1.7,1.8-3.5,2.7-5.2
				C637.7,351.5,637.8,351.6,638,351.6z M633.8,361.3c-0.2-0.1-0.5-0.2-0.7-0.3c0.4-0.9,0.8-1.9,1.1-2.8c0.2,0.1,0.5,0.2,0.7,0.3
				C634.6,359.4,634.2,360.3,633.8,361.3z M642.2,341.4c-0.2-0.1-0.3-0.1-0.5-0.2c0.3-0.7,0.6-1.4,0.9-2.2c0.2,0.1,0.3,0.1,0.5,0.2
				C642.7,340,642.4,340.7,642.2,341.4z M639.1,349c-0.2-0.1-0.3-0.1-0.5-0.2c0.6-1.4,1.1-2.8,1.7-4.1c0.2,0.1,0.3,0.1,0.5,0.2
				C640.2,346.3,639.6,347.6,639.1,349z M646.1,333.1c-0.2-0.1-0.5-0.2-0.7-0.3c0.1-0.4,0.3-0.7,0.4-1.1c0.2,0.1,0.5,0.2,0.7,0.3
				C646.4,332.4,646.2,332.8,646.1,333.1z M644.6,336.8c-0.2-0.1-0.5-0.2-0.7-0.3c0.2-0.5,0.4-1,0.6-1.5c0.2,0.1,0.5,0.2,0.7,0.3
				C645,335.8,644.8,336.3,644.6,336.8z M662.2,296.7c-0.2-0.1-0.3-0.1-0.5-0.2c0.7-1.6,1.3-3.2,2-4.8c0.2,0.1,0.3,0.1,0.5,0.2
				C663.5,293.5,662.9,295.1,662.2,296.7z M669.3,283.1c0.4-0.9,0.8-1.9,1.2-2.8c-0.3-0.1-0.5-0.2-0.8-0.3c-0.4,0.9-0.8,1.9-1.2,2.8
				C668.8,282.9,669.1,283,669.3,283.1z M675,271.8c0.2-0.4,0.4-0.9,0.5-1.3c-0.3-0.1-0.5-0.2-0.8-0.3c-0.2,0.4-0.4,0.9-0.5,1.3
				C674.4,271.5,674.7,271.6,675,271.8z M716.4,187.2c0.5-1.2,1-2.4,1.6-3.7c-0.3-0.1-0.6-0.3-0.9-0.4c-0.5,1.2-1,2.4-1.5,3.7
				C715.8,186.9,716.1,187,716.4,187.2z"/>
			<path d="M768.4,215.5c-0.6-0.3-1.2-0.6-1.8-0.9c0.1-0.2,0.9-1.1,1.6-1c-0.2-0.4-0.8-0.7-1-1c0.2-0.4,0.5-0.3,1.3-0.4
				c0,0,1.1,0-0.1-0.6c-1.2-0.6-0.7-0.1-1.3-0.4c2.8-3.3,5.5-8.6,2.8-13c-1.4,0.6-10.4-0.9-9.2,2c0,0-0.7-0.1-0.8-0.7
				c-2.6,0-10.4,12.4-13.9,19.6c-0.9,1.9-4.7,14.9-7.9,22.2c-1.2,3.1-2.3,6.2-4,11.1c-0.9,2.5-1.6,6-3.5,8.5
				c-8.2,13-20.4,57.6-29.6,75.6c-5,11.3-10.1,22.6-15.2,33.8c-0.4,1.9-13.2,21.6-23.2,16.8c-3.1-1.5-1.1-7-1-7.2
				c0.4-0.8,4.7-6.4,5.1-7.2c1.2-2.6,2.5-5.2,3.7-7.8c0.4-0.8,2.8-3.6,4.2-5.8c-0.6,2.5-2,6.6-2.3,7.2c-1.2,2.5-8.7,13.5-8.9,13.9
				c-0.4,0.9-0.3,2.4-0.5,3.4c0.6,0,0.7-0.2,0.9-0.6c-0.3,0.6,0.1,1.6,0,2.3c14.8-0.1,15.3-11.8,22.4-19.1c0-0.5-0.3-0.7-0.9-0.5
				c0.3-0.6,6.6-15.6,8.4-16.2c0.5-1,1-2,1.5-2.9c1.4-2.7,0.7-7.5,3.9-10.4c1-3.2,4.3-10.4,4.7-11.3c4.3-11.9,8.6-23.8,12.8-35.8
				c0.3-0.6,1.3-6.1,2.5-9.2c4.1-9.7,12.7-29,13.1-29.9c3.8-10.7,7.5-21.4,11.2-32.1c1.8-3.8,12.4-28.5,28.1-20.7
				c3.9,2,2.7,6.6,2,7.8C771.8,208.7,770.1,212.1,768.4,215.5z M674,384.6c-0.2-0.1-0.4-0.2-0.7-0.3c0.2-0.4,0.3-0.7,0.5-1.1
				c0.2,0.1,0.4,0.2,0.7,0.3C674.4,383.9,674.2,384.2,674,384.6z"/>
		</g>
		<path d="M485,141.1c-1.8-21.5-20.7-38.1-42.5-36.7c0.7-3.3,0.9-6.7,0.6-10c-1.5-18-16.8-32.1-34.8-32.1c-0.1,0-0.1,0-0.2,0
			c-2.3-13.7-14.7-23.6-28.9-22.4c-14.1,1.2-25,13.3-24.8,27.3c-14.3,3.5-25.6,14.1-30.1,28.2c-14.9,2.1-26,15.1-25.8,30.2
			c-0.1,0-0.1,0-0.2,0v0c-1.8-0.2-3.6-0.2-5.5-0.1c-8.2,0.7-15.6,4.5-20.9,10.8c-5.3,6.2-7.8,14.2-7.1,22.3
			c1.4,16.6,16.2,29.4,33.1,28c6.9-0.6,13.3-3.5,18.3-8.2c7,8.9,17.8,14.2,29.2,14.2c1,0,2.1,0,3.1-0.1c12.3-1,23.4-8.2,29.4-19
			c5.7,4.9,13,7.3,20.7,6.7c6.7-0.6,12.8-3.4,17.6-8.1c7.6,7.8,18,12.3,28.8,12.3c0,0,0,0,0,0c1.1,0,2.2,0,3.4-0.1
			c10.7-0.9,20.3-5.9,27.3-14.1C482.6,162.1,485.9,151.7,485,141.1z M473.1,168.1c-6.3,7.5-15.2,12.1-25,12.9
			c-1,0.1-2.1,0.1-3.1,0.1c0,0,0,0,0,0c-10.5,0-20.5-4.6-27.5-12.5l-1.3-1.4l-1.3,1.4c-4.3,4.9-10.2,7.8-16.6,8.4
			c-7.4,0.6-14.5-2-19.7-7.2L377,168l-1,2.1c-5.2,10.8-15.8,18.1-27.7,19.1c-12.1,1-23.6-4.5-30.5-14.3l-1.2-1.7l-1.4,1.5
			c-4.6,4.9-10.9,8-17.6,8.5c-15.1,1.2-28.2-10.1-29.5-24.9c-0.6-7.3,1.7-14.3,6.4-19.9c4.7-5.6,11.3-9,18.6-9.6
			c1.4-0.1,2.8-0.1,4.2,0c0.1,0,0.1,0,0.2,0c0,0,0.1,0,0.1,0c0.6,0,1.1,0.1,1.6,0.2c0.2,0,0.5,0,0.7,0.1c0.3,0,0.5,0,0.8,0.1
			c5,0.8,12.1,3,14.3,7.1c1.2,2.3,0.8-4-4.2-7c-3-1.8-6-2.9-8.8-3.4c-0.5-13.9,9.9-26.1,23.9-27.4l1.1-0.1l0.3-1.1
			c3.9-13.9,15.1-24.3,29.2-27.2l1.4-0.3l-0.1-1.5c-0.9-12.8,8.8-24.1,21.6-25.2c12.9-1.1,24.1,8.3,25.5,21l0.2,1.6l1.6-0.1
			c17-0.9,31.7,12.2,33.1,28.9c0.3,3.5,0,7-0.9,10.5c-1.6,0.5-3.4,1.2-5.5,2.3c-2.5,1.3-3.5,3.1-3.5,3.1c2.6-1,5.3-2,8.2-2.5v0
			c1.7-0.3,3.6-0.5,5.5-0.5c1.4,0,2.7,0.1,4,0.2c17.8,1.3,32.5,15.5,34.1,33.5C482.5,151.1,479.4,160.6,473.1,168.1z"/>
	</g>
	<path d="M202.8,384.5c9.3-19.4,60.1-6.6,50.8,29.1l266,100.8c0,0,25.6-15.5,40.3-14.3c14.7,1.2,17.8,9.7,18.6,19.8
		c0.8,10.1-24.8,20.9-24.8,20.9s14,20.6,0,32.6c-14,12-41.9-13.2-41.9-28.7c0,0-247.8-104.3-267.2-105.9c0,0-12.4,13.2-26.8,11.6
		c-14.3-1.6-33.2-8.5-30.2-31c1.9-14.7,23.3-9.7,23.3-9.7S196,398.7,202.8,384.5z"/>
	<path d="M242.7,513.7c0,0-25.6-15.1-33.7-14.4c-8.1,0.8-42.3,19-4.7,40.3c0,0-8.9,34.6,17.1,36.9c26,2.3,20.9-23.3,31-30.7
		c10.1-7.4,10.1-7.4,10.1-7.4l259.4-99.3c0,0,22.5,14,37.2,9.7c14.7-4.3,19-7.4,19.4-15.9c0.4-8.5-2.7-19.8-23.7-22.1
		c0,0,15.5-11.6,12-24c-3.4-11.9-62.4-10.1-54.3,23.3L242.7,513.7z"/>
</g>
</svg>
